<svg width="415" height="217" viewBox="0 0 415 217" fill="none" xmlns="http://www.w3.org/2000/svg">
<g clip-path="url(#clip0_152_194)">
<path d="M147.812 0C119.781 2e-06 121.531 12.1562 121.531 12.1562L121.562 24.75H148.312V28.5312H110.938C110.938 28.5312 93 26.497 93 54.7812C93 83.0655 108.656 82.0625 108.656 82.0625H118V68.9375C118 68.9375 117.496 53.2812 133.406 53.2812C149.316 53.2812 159.938 53.2812 159.938 53.2812C159.938 53.2812 174.844 53.5222 174.844 38.875C174.844 24.2278 174.844 14.6562 174.844 14.6562C174.844 14.6562 177.107 0 147.812 0ZM133.062 8.46875C135.724 8.46875 137.875 10.6198 137.875 13.2812C137.875 15.9427 135.724 18.0938 133.062 18.0938C130.401 18.0938 128.25 15.9427 128.25 13.2812C128.25 10.6198 130.401 8.46875 133.062 8.46875Z" fill="white"/>
<path d="M148.609 109.846C176.64 109.846 174.89 97.6898 174.89 97.6898L174.859 85.0961H148.109V81.3148H185.484C185.484 81.3148 203.421 83.3491 203.421 55.0648C203.421 26.7806 187.765 27.7836 187.765 27.7836H178.421V40.9086C178.421 40.9086 178.925 56.5648 163.015 56.5648C147.105 56.5648 136.484 56.5648 136.484 56.5648C136.484 56.5648 121.577 56.3239 121.577 70.9711C121.577 85.6183 121.577 95.1898 121.577 95.1898C121.577 95.1898 119.314 109.846 148.609 109.846ZM163.359 101.377C160.697 101.377 158.546 99.2263 158.546 96.5648C158.546 93.9034 160.697 91.7523 163.359 91.7523C166.02 91.7523 168.171 93.9034 168.171 96.5648C168.171 99.2263 166.02 101.377 163.359 101.377Z" fill="url(#paint0_linear_152_194)"/>
</g>
<path d="M15.5 155.234C15.1 155.234 15 155.034 15.2 154.734L17.3 152.034C17.5 151.734 18 151.534 18.4 151.534H54.1C54.5 151.534 54.6 151.834 54.4 152.134L52.7 154.734C52.5 155.034 52 155.334 51.7 155.334L15.5 155.234Z" fill="#C5C5C5"/>
<path d="M0.4 164.434C0 164.434 -0.1 164.234 0.1 163.934L2.2 161.234C2.4 160.934 2.9 160.734 3.3 160.734H48.9C49.3 160.734 49.5 161.034 49.4 161.334L48.6 163.734C48.5 164.134 48.1 164.334 47.7 164.334L0.4 164.434Z" fill="#C5C5C5"/>
<path d="M24.6 173.634C24.2 173.634 24.1 173.334 24.3 173.034L25.7 170.534C25.9 170.234 26.3 169.934 26.7 169.934H46.7C47.1 169.934 47.3 170.234 47.3 170.634L47.1 173.034C47.1 173.434 46.7 173.734 46.4 173.734L24.6 173.634Z" fill="#C5C5C5"/>
<path d="M128.4 153.434C122.1 155.034 117.8 156.234 111.6 157.834C110.1 158.234 110 158.334 108.7 156.834C107.2 155.134 106.1 154.034 104 153.034C97.7 149.934 91.6 150.834 85.9 154.534C79.1 158.934 75.6 165.434 75.7 173.534C75.8 181.534 81.3 188.134 89.2 189.234C96 190.134 101.7 187.734 106.2 182.634C107.1 181.534 107.9 180.334 108.9 178.934C105.3 178.934 100.8 178.934 89.6 178.934C87.5 178.934 87 177.634 87.7 175.934C89 172.834 91.4 167.634 92.8 165.034C93.1 164.434 93.8 163.434 95.3 163.434C100.4 163.434 119.2 163.434 131.7 163.434C131.5 166.134 131.5 168.834 131.1 171.534C130 178.734 127.3 185.334 122.9 191.134C115.7 200.634 106.3 206.534 94.4 208.134C84.6 209.434 75.5 207.534 67.5 201.534C60.1 195.934 55.9 188.534 54.8 179.334C53.5 168.434 56.7 158.634 63.3 150.034C70.4 140.734 79.8 134.834 91.3 132.734C100.7 131.034 109.7 132.134 117.8 137.634C123.1 141.134 126.9 145.934 129.4 151.734C130 152.634 129.6 153.134 128.4 153.434Z" fill="white"/>
<path d="M161.5 208.734C152.4 208.534 144.1 205.934 137.1 199.934C131.2 194.834 127.5 188.334 126.3 180.634C124.5 169.334 127.6 159.334 134.4 150.434C141.7 140.834 150.5 135.834 162.4 133.734C172.6 131.934 182.2 132.934 190.9 138.834C198.8 144.234 203.7 151.534 205 161.134C206.7 174.634 202.8 185.634 193.5 195.034C186.9 201.734 178.8 205.934 169.5 207.834C166.8 208.334 164.1 208.434 161.5 208.734ZM185.3 168.334C185.2 167.034 185.2 166.034 185 165.034C183.2 155.134 174.1 149.534 164.6 151.734C155.3 153.834 149.3 159.734 147.1 169.134C145.3 176.934 149.1 184.834 156.3 188.034C161.8 190.434 167.3 190.134 172.6 187.434C180.5 183.334 184.8 176.934 185.3 168.334Z" fill="white"/>
<path d="M413.503 109.431L404.693 103.973C404.619 103.114 404.534 102.258 404.442 101.405L412.028 94.3411C412.798 93.6227 413.144 92.5592 412.935 91.5318C412.732 90.4983 412.008 89.6475 411.022 89.2843L401.329 85.6722C401.086 84.8334 400.832 84.0007 400.571 83.1639L406.611 74.7759C407.227 73.9231 407.354 72.8134 406.952 71.8462C406.551 70.8769 405.674 70.1826 404.645 70.012L394.43 68.3505C394.032 67.5759 393.619 66.8134 393.201 66.0629L397.496 56.6314C397.936 55.6722 397.845 54.5645 397.259 53.6816C396.675 52.8067 395.686 52.295 394.63 52.3351L384.255 52.6963C383.719 52.0261 383.173 51.3619 382.617 50.7097L385.005 40.6161C385.246 39.5906 384.943 38.509 384.197 37.7666C383.456 37.0241 382.38 36.7171 381.347 36.9579L371.252 39.3458C370.598 38.792 369.934 38.2441 369.262 37.7084L369.625 27.3338C369.665 26.2843 369.153 25.287 368.278 24.705C367.401 24.1191 366.291 24.0308 365.328 24.4662L355.916 28.7605C355.155 28.3431 354.393 27.9298 353.628 27.5304L351.962 17.3164C351.794 16.2809 351.099 15.402 350.128 15.0087C349.159 14.6053 348.041 14.7358 347.198 15.3498L338.809 21.39C337.983 21.1271 337.152 20.8742 336.321 20.6334L332.709 10.9411C332.341 9.95384 331.49 9.22943 330.461 9.02475C329.429 8.82207 328.374 9.16521 327.651 9.93177L320.587 17.5171C319.734 17.4227 318.875 17.3365 318.018 17.2662L312.56 8.43679C312.008 7.54381 311.031 7 309.971 7C308.911 7 307.944 7.54381 307.402 8.43679L301.943 17.2662C301.085 17.3365 300.226 17.4227 299.375 17.5171L292.311 9.93177C291.594 9.16521 290.53 8.82207 289.501 9.02475C288.467 9.23144 287.616 9.95384 287.253 10.9411L283.641 20.6334C282.802 20.8742 281.971 21.1291 281.152 21.39L272.764 15.3498C271.911 14.7338 270.799 14.6033 269.834 15.0087C268.864 15.41 268.168 16.289 267.999 17.3164L266.334 27.5304C265.563 27.9298 264.8 28.3411 264.046 28.7605L254.634 24.4662C253.676 24.0288 252.567 24.1191 251.684 24.705C250.809 25.287 250.297 26.2843 250.337 27.3338L250.698 37.7084C250.028 38.2441 249.364 38.792 248.707 39.3458L238.613 36.9579C237.587 36.7191 236.506 37.0241 235.763 37.7666C235.017 38.511 234.714 39.5846 234.954 40.6161L237.323 50.7097C236.771 51.3639 236.225 52.0261 235.689 52.6963L225.313 52.3351C224.268 52.305 223.266 52.8067 222.684 53.6816C222.098 54.5525 222.01 55.6682 222.446 56.6314L226.74 66.0629C226.323 66.8194 225.909 67.5819 225.51 68.3505L215.295 70.012C214.258 70.1806 213.383 70.8749 212.987 71.8462C212.586 72.8194 212.716 73.9331 213.328 74.7759L219.369 83.1639C219.106 83.9926 218.851 84.8254 218.611 85.6722L208.917 89.2843C207.934 89.6515 207.21 90.5023 207.005 91.5318C206.8 92.5632 207.143 93.6187 207.912 94.3411L215.498 101.405C215.404 102.258 215.319 103.116 215.247 103.973L206.437 109.431C205.544 109.983 205 110.959 205 112.02C205 113.082 205.544 114.047 206.437 114.589L215.247 120.047C215.319 120.906 215.404 121.763 215.498 122.615L207.912 129.679C207.143 130.395 206.8 131.459 207.005 132.488C207.21 133.522 207.934 134.371 208.917 134.736L218.611 138.348C218.851 139.187 219.106 140.019 219.369 140.856L213.328 149.244C212.714 150.099 212.584 151.209 212.987 152.174C213.391 153.147 214.268 153.841 215.315 154.008L225.53 155.67C225.93 156.444 226.339 157.207 226.76 157.957L222.466 167.369C222.028 168.326 222.119 169.435 222.705 170.318C223.291 171.195 224.288 171.707 225.334 171.665L235.689 171.302C236.229 171.976 236.773 172.636 237.327 173.292L234.958 183.386C234.718 184.409 235.021 185.473 235.767 186.215C236.508 186.964 237.585 187.263 238.617 187.022L248.711 184.654C249.368 185.212 250.032 185.754 250.702 186.288L250.341 196.662C250.301 197.712 250.813 198.709 251.688 199.291C252.559 199.875 253.674 199.963 254.638 199.526L264.05 195.231C264.808 195.653 265.571 196.062 266.338 196.462L268.003 206.676C268.172 207.715 268.866 208.594 269.838 209.003C270.807 209.407 271.925 209.276 272.768 208.664L281.156 202.624C281.985 202.887 282.818 203.144 283.665 203.385L287.277 213.077C287.645 214.06 288.495 214.789 289.525 214.989C290.557 215.198 291.612 214.853 292.335 214.082L299.399 206.497C300.252 206.595 301.111 206.678 301.968 206.754L307.426 215.563C307.976 216.452 308.953 217 309.995 217C311.037 217 312.022 216.454 312.584 215.563L318.042 206.754C318.901 206.678 319.758 206.595 320.611 206.497L327.675 214.082C328.392 214.853 329.456 215.198 330.485 214.989C331.519 214.787 332.369 214.06 332.733 213.077L336.345 203.385C337.184 203.144 338.017 202.887 338.854 202.624L347.242 208.664C348.095 209.276 349.207 209.407 350.172 209.003C351.144 208.604 351.838 207.723 352.007 206.676L353.672 196.462C354.443 196.062 355.206 195.647 355.96 195.231L365.372 199.526C366.33 199.963 367.439 199.875 368.322 199.291C369.197 198.705 369.707 197.712 369.669 196.662L369.308 186.288C369.978 185.752 370.642 185.212 371.297 184.654L381.391 187.022C382.417 187.263 383.498 186.964 384.241 186.215C384.987 185.471 385.29 184.401 385.05 183.386L382.682 173.292C383.235 172.636 383.781 171.976 384.315 171.302L394.691 171.665C395.736 171.707 396.738 171.195 397.32 170.318C397.906 169.443 397.996 168.33 397.556 167.369L393.262 157.957C393.681 157.197 394.093 156.434 394.49 155.67L404.705 154.008C405.744 153.841 406.619 153.147 407.013 152.174C407.414 151.205 407.288 150.087 406.672 149.244L400.631 140.856C400.892 140.027 401.147 139.195 401.389 138.348L411.083 134.736C412.068 134.367 412.794 133.518 412.995 132.488C413.204 131.457 412.859 130.401 412.088 129.679L404.502 122.615C404.594 121.763 404.679 120.904 404.753 120.047L413.563 114.589C414.456 114.039 415 113.062 415 112.02C415 110.979 414.458 109.993 413.565 109.431H413.503ZM354.501 182.676C351.13 181.949 349.002 178.622 349.725 175.251C350.445 171.88 353.759 169.732 357.13 170.455C360.502 171.175 362.649 174.508 361.927 177.88C361.204 181.251 357.893 183.398 354.521 182.676H354.501ZM351.511 162.408C348.44 161.75 345.41 163.704 344.768 166.783L341.637 181.391C331.984 185.766 321.167 188.214 309.929 188.214C298.369 188.214 287.452 185.666 277.618 181.09L274.488 166.482C273.829 163.411 270.815 161.445 267.745 162.107L254.84 164.876C252.452 162.408 250.225 159.779 248.178 157.01H310.992C311.703 157.01 312.176 156.882 312.176 156.235V133.961C312.176 133.315 311.703 133.187 310.992 133.187H292.63V119.12H312.477C314.29 119.12 322.171 119.637 324.679 129.715C325.468 132.805 327.208 142.879 328.392 146.11C329.572 149.722 334.372 156.946 339.49 156.946H370.797C371.152 156.946 371.531 156.906 371.931 156.833C369.763 159.783 367.375 162.573 364.826 165.181L351.621 162.352L351.511 162.408ZM264.614 182.375C261.242 183.101 257.931 180.954 257.208 177.579C256.488 174.207 258.629 170.876 262.005 170.154C265.376 169.433 268.688 171.581 269.41 174.95C270.131 178.321 267.987 181.652 264.614 182.375ZM240.732 85.8528C242.129 89.0033 240.708 92.6956 237.561 94.1003C234.411 95.499 230.738 94.0762 229.333 90.9298C227.928 87.7833 229.357 84.0869 232.504 82.6823C235.655 81.2856 239.327 82.7063 240.732 85.8528ZM233.407 103.191L246.853 97.2107C249.723 95.9365 251.027 92.5752 249.743 89.7057L246.974 83.4448H257.851V132.408H235.976C234.071 125.706 233.046 118.642 233.046 111.338C233.046 108.548 233.196 105.799 233.485 103.09L233.407 103.191ZM292.409 98.4348V83.9866H318.297C319.636 83.9866 327.75 85.5338 327.75 91.592C327.75 96.6288 321.528 98.4348 316.411 98.4348H292.329H292.409ZM386.531 111.438C386.531 113.357 386.46 115.251 386.32 117.137H378.433C377.644 117.137 377.327 117.655 377.327 118.427V122.039C377.327 130.548 372.531 132.414 368.316 132.876C364.303 133.327 359.867 131.198 359.326 128.742C356.958 115.437 353.024 112.608 346.803 107.672C354.529 102.775 362.557 95.5311 362.557 85.7987C362.557 75.3438 355.392 68.7619 350.516 65.5311C343.652 61.0161 336.066 60.113 334.019 60.113H252.541C263.598 47.792 278.63 39.0428 295.487 35.8321L305.1 45.9057C307.268 48.1732 310.86 48.2736 313.148 46.0903L323.905 35.816C346.381 40.01 365.447 54.0167 376.484 73.3411L369.119 89.9565C367.849 92.8261 369.145 96.1973 372.009 97.4615L386.177 103.763C386.422 106.271 386.551 108.819 386.551 111.388L386.531 111.438ZM305.052 27.3579C307.541 24.9699 311.494 25.0702 313.862 27.5605C316.23 30.0488 316.15 34.002 313.655 36.39C311.167 38.7779 307.213 38.6776 304.845 36.1853C302.477 33.697 302.558 29.7438 305.052 27.3559V27.3579ZM378.102 86.1538C379.497 83.0033 383.179 81.5786 386.33 82.9833C389.481 84.3799 390.906 88.0803 389.501 91.2308C388.106 94.3813 384.423 95.806 381.273 94.4013C378.122 93.0047 376.697 89.3043 378.102 86.1538Z" fill="#FDFDFD"/>
<defs>
<linearGradient id="paint0_linear_152_194" x1="137.199" y1="44.4518" x2="195.84" y2="100.632" gradientUnits="userSpaceOnUse">
<stop stop-color="#DCDCDC"/>
<stop offset="1" stop-color="#C5C5C5"/>
</linearGradient>
<clipPath id="clip0_152_194">
<rect width="110.421" height="109.846" fill="white" transform="translate(93)"/>
</clipPath>
</defs>
</svg>
