<svg width="456" height="281" viewBox="0 0 456 281" fill="none" xmlns="http://www.w3.org/2000/svg">
<path d="M173.999 0C138.712 2.53081e-06 140.916 15.3826 140.916 15.3826L140.955 31.3188H174.628V36.1036H127.58C127.58 36.1036 105 33.5295 105 69.3206C105 105.112 124.708 103.842 124.708 103.842H136.47V87.234C136.47 87.234 135.836 67.4225 155.864 67.4225C175.892 67.4225 189.262 67.4225 189.262 67.4225C189.262 67.4225 208.026 67.7274 208.026 49.1927C208.026 30.658 208.026 18.5461 208.026 18.5461C208.026 18.5461 210.875 0 173.999 0ZM155.431 10.7164C158.782 10.7164 161.489 13.4384 161.489 16.8062C161.489 20.174 158.782 22.896 155.431 22.896C152.081 22.896 149.373 20.174 149.373 16.8062C149.373 13.4384 152.081 10.7164 155.431 10.7164Z" fill="white"/>
<path d="M175.001 139C210.288 139 208.084 123.617 208.084 123.617L208.045 107.681H174.372V102.896H221.42C221.42 102.896 244 105.471 244 69.6794C244 33.8883 224.292 35.1575 224.292 35.1575H212.53V51.766C212.53 51.766 213.164 71.5775 193.136 71.5775C173.108 71.5775 159.738 71.5775 159.738 71.5775C159.738 71.5775 140.974 71.2726 140.974 89.8073C140.974 108.342 140.974 120.454 140.974 120.454C140.974 120.454 138.125 139 175.001 139ZM193.569 128.284C190.218 128.284 187.511 125.562 187.511 122.194C187.511 118.826 190.218 116.104 193.569 116.104C196.919 116.104 199.627 118.826 199.627 122.194C199.627 125.562 196.919 128.284 193.569 128.284Z" fill="url(#paint0_linear_152_194)"/>
<path d="M20.9771 209.885C20.4454 209.885 20.3125 209.619 20.5784 209.22L23.3698 205.631C23.6357 205.232 24.3003 204.966 24.832 204.966H72.2866C72.8183 204.966 72.9513 205.365 72.6854 205.764L70.4257 209.22C70.1598 209.619 69.4952 210.017 69.0964 210.017L20.9771 209.885Z" fill="#C5C5C5"/>
<path d="M0.905362 222.114C0.373657 222.114 0.240731 221.848 0.506583 221.449L3.29803 217.86C3.56389 217.461 4.22852 217.195 4.76022 217.195H65.3746C65.9063 217.195 66.1721 217.594 66.0392 217.993L64.9758 221.183C64.8428 221.715 64.3111 221.981 63.7794 221.981L0.905362 222.114Z" fill="#C5C5C5"/>
<path d="M33.0735 234.343C32.5417 234.343 32.4088 233.944 32.6747 233.545L34.5356 230.222C34.8015 229.823 35.3332 229.425 35.8649 229.425H62.4501C62.9818 229.425 63.2477 229.823 63.2477 230.355L62.9818 233.545C62.9818 234.077 62.4501 234.476 62.0514 234.476L33.0735 234.343Z" fill="#C5C5C5"/>
<path d="M171.051 207.492C162.677 209.619 156.961 211.214 148.719 213.341C146.725 213.872 146.592 214.005 144.864 212.011C142.871 209.752 141.408 208.289 138.617 206.96C130.243 202.839 122.134 204.036 114.557 208.954C105.518 214.803 100.866 223.443 100.999 234.21C101.132 244.844 108.443 253.617 118.944 255.079C127.983 256.276 135.56 253.086 141.541 246.306C142.738 244.844 143.801 243.249 145.13 241.388C140.345 241.388 134.363 241.388 119.475 241.388C116.684 241.388 116.019 239.66 116.95 237.4C118.678 233.28 121.868 226.367 123.729 222.911C124.128 222.114 125.058 220.784 127.052 220.784C133.832 220.784 158.822 220.784 175.437 220.784C175.172 224.373 175.172 227.962 174.64 231.551C173.178 241.122 169.589 249.895 163.74 257.605C154.169 270.233 141.674 278.076 125.856 280.202C112.829 281.93 100.733 279.405 90.0988 271.429C80.2623 263.985 74.6794 254.149 73.2172 241.92C71.4892 227.431 75.7428 214.404 84.5159 202.972C93.9537 190.61 106.449 182.768 121.735 179.976C134.23 177.716 146.194 179.179 156.961 186.489C164.006 191.142 169.057 197.522 172.38 205.232C173.178 206.428 172.646 207.093 171.051 207.492Z" fill="white"/>
<path d="M215.049 281C202.953 280.734 191.92 277.278 182.615 269.303C174.773 262.523 169.855 253.883 168.259 243.648C165.867 228.627 169.987 215.334 179.026 203.504C188.73 190.743 200.428 184.097 216.246 181.305C229.804 178.913 242.565 180.242 254.13 188.085C264.631 195.263 271.144 204.966 272.872 217.727C275.132 235.672 269.948 250.294 257.586 262.789C248.813 271.695 238.046 277.278 225.684 279.804C222.094 280.468 218.505 280.601 215.049 281ZM246.686 227.298C246.553 225.57 246.553 224.241 246.287 222.911C243.894 209.752 231.798 202.308 219.17 205.232C206.808 208.024 198.832 215.866 195.908 228.361C193.515 238.729 198.567 249.231 208.137 253.484C215.448 256.675 222.759 256.276 229.804 252.687C240.305 247.237 246.021 238.729 246.686 227.298Z" fill="white"/>
<path d="M454.503 109.431L445.693 103.973C445.619 103.114 445.534 102.258 445.442 101.405L453.028 94.3411C453.798 93.6227 454.144 92.5592 453.935 91.5318C453.732 90.4983 453.008 89.6475 452.022 89.2843L442.329 85.6722C442.086 84.8334 441.832 84.0007 441.571 83.1639L447.611 74.7759C448.227 73.9231 448.354 72.8134 447.952 71.8462C447.551 70.8769 446.674 70.1826 445.645 70.012L435.43 68.3505C435.032 67.5759 434.619 66.8134 434.201 66.0629L438.496 56.6314C438.936 55.6722 438.845 54.5645 438.259 53.6816C437.675 52.8067 436.686 52.295 435.63 52.3351L425.255 52.6963C424.719 52.0261 424.173 51.3619 423.617 50.7097L426.005 40.6161C426.246 39.5906 425.943 38.509 425.197 37.7666C424.456 37.0241 423.38 36.7171 422.347 36.9579L412.252 39.3458C411.598 38.792 410.934 38.2441 410.262 37.7084L410.625 27.3338C410.665 26.2843 410.153 25.287 409.278 24.705C408.401 24.1191 407.291 24.0308 406.328 24.4662L396.916 28.7605C396.155 28.3431 395.393 27.9298 394.628 27.5304L392.962 17.3164C392.794 16.2809 392.099 15.402 391.128 15.0087C390.159 14.6053 389.041 14.7358 388.198 15.3498L379.809 21.39C378.983 21.1271 378.152 20.8742 377.321 20.6334L373.709 10.9411C373.341 9.95384 372.49 9.22943 371.461 9.02475C370.429 8.82207 369.374 9.16521 368.651 9.93177L361.587 17.5171C360.734 17.4227 359.875 17.3365 359.018 17.2662L353.56 8.43679C353.008 7.54381 352.031 7 350.971 7C349.911 7 348.944 7.54381 348.402 8.43679L342.943 17.2662C342.085 17.3365 341.226 17.4227 340.375 17.5171L333.311 9.93177C332.594 9.16521 331.53 8.82207 330.501 9.02475C329.467 9.23144 328.616 9.95384 328.253 10.9411L324.641 20.6334C323.802 20.8742 322.971 21.1291 322.152 21.39L313.764 15.3498C312.911 14.7338 311.799 14.6033 310.834 15.0087C309.864 15.41 309.168 16.289 308.999 17.3164L307.334 27.5304C306.563 27.9298 305.8 28.3411 305.046 28.7605L295.634 24.4662C294.676 24.0288 293.567 24.1191 292.684 24.705C291.809 25.287 291.297 26.2843 291.337 27.3338L291.698 37.7084C291.028 38.2441 290.364 38.792 289.707 39.3458L279.613 36.9579C278.587 36.7191 277.506 37.0241 276.763 37.7666C276.017 38.511 275.714 39.5846 275.954 40.6161L278.323 50.7097C277.771 51.3639 277.225 52.0261 276.689 52.6963L266.313 52.3351C265.268 52.305 264.266 52.8067 263.684 53.6816C263.098 54.5525 263.01 55.6682 263.446 56.6314L267.74 66.0629C267.323 66.8194 266.909 67.5819 266.51 68.3505L256.295 70.012C255.258 70.1806 254.383 70.8749 253.987 71.8462C253.586 72.8194 253.716 73.9331 254.328 74.7759L260.369 83.1639C260.106 83.9926 259.851 84.8254 259.611 85.6722L249.917 89.2843C248.934 89.6515 248.21 90.5023 248.005 91.5318C247.8 92.5632 248.143 93.6187 248.912 94.3411L256.498 101.405C256.404 102.258 256.319 103.116 256.247 103.973L247.437 109.431C246.544 109.983 246 110.959 246 112.02C246 113.082 246.544 114.047 247.437 114.589L256.247 120.047C256.319 120.906 256.404 121.763 256.498 122.615L248.912 129.679C248.143 130.395 247.8 131.459 248.005 132.488C248.21 133.522 248.934 134.371 249.917 134.736L259.611 138.348C259.851 139.187 260.106 140.019 260.369 140.856L254.328 149.244C253.714 150.099 253.584 151.209 253.987 152.174C254.391 153.147 255.268 153.841 256.315 154.008L266.53 155.67C266.93 156.444 267.339 157.207 267.76 157.957L263.466 167.369C263.028 168.326 263.119 169.435 263.705 170.318C264.291 171.195 265.288 171.707 266.334 171.665L276.689 171.302C277.229 171.976 277.773 172.636 278.327 173.292L275.958 183.386C275.718 184.409 276.021 185.473 276.767 186.215C277.508 186.964 278.585 187.263 279.617 187.022L289.711 184.654C290.368 185.212 291.032 185.754 291.702 186.288L291.341 196.662C291.301 197.712 291.813 198.709 292.688 199.291C293.559 199.875 294.674 199.963 295.638 199.526L305.05 195.231C305.808 195.653 306.571 196.062 307.338 196.462L309.003 206.676C309.172 207.715 309.866 208.594 310.838 209.003C311.807 209.407 312.925 209.276 313.768 208.664L322.156 202.624C322.985 202.887 323.818 203.144 324.665 203.385L328.277 213.077C328.645 214.06 329.495 214.789 330.525 214.989C331.557 215.198 332.612 214.853 333.335 214.082L340.399 206.497C341.252 206.595 342.111 206.678 342.968 206.754L348.426 215.563C348.976 216.452 349.953 217 350.995 217C352.037 217 353.022 216.454 353.584 215.563L359.042 206.754C359.901 206.678 360.758 206.595 361.611 206.497L368.675 214.082C369.392 214.853 370.456 215.198 371.485 214.989C372.519 214.787 373.369 214.06 373.733 213.077L377.345 203.385C378.184 203.144 379.017 202.887 379.854 202.624L388.242 208.664C389.095 209.276 390.207 209.407 391.172 209.003C392.144 208.604 392.838 207.723 393.007 206.676L394.672 196.462C395.443 196.062 396.206 195.647 396.96 195.231L406.372 199.526C407.33 199.963 408.439 199.875 409.322 199.291C410.197 198.705 410.707 197.712 410.669 196.662L410.308 186.288C410.978 185.752 411.642 185.212 412.297 184.654L422.391 187.022C423.417 187.263 424.498 186.964 425.241 186.215C425.987 185.471 426.29 184.401 426.05 183.386L423.682 173.292C424.235 172.636 424.781 171.976 425.315 171.302L435.691 171.665C436.736 171.707 437.738 171.195 438.32 170.318C438.906 169.443 438.996 168.33 438.556 167.369L434.262 157.957C434.681 157.197 435.093 156.434 435.49 155.67L445.705 154.008C446.744 153.841 447.619 153.147 448.013 152.174C448.414 151.205 448.288 150.087 447.672 149.244L441.631 140.856C441.892 140.027 442.147 139.195 442.389 138.348L452.083 134.736C453.068 134.367 453.794 133.518 453.995 132.488C454.204 131.457 453.859 130.401 453.088 129.679L445.502 122.615C445.594 121.763 445.679 120.904 445.753 120.047L454.563 114.589C455.456 114.039 456 113.062 456 112.02C456 110.979 455.458 109.993 454.565 109.431H454.503ZM395.501 182.676C392.13 181.949 390.002 178.622 390.725 175.251C391.445 171.88 394.759 169.732 398.13 170.455C401.502 171.175 403.649 174.508 402.927 177.88C402.204 181.251 398.893 183.398 395.521 182.676H395.501ZM392.511 162.408C389.44 161.75 386.41 163.704 385.768 166.783L382.637 181.391C372.984 185.766 362.167 188.214 350.929 188.214C339.369 188.214 328.452 185.666 318.618 181.09L315.488 166.482C314.829 163.411 311.815 161.445 308.745 162.107L295.84 164.876C293.452 162.408 291.225 159.779 289.178 157.01H351.992C352.703 157.01 353.176 156.882 353.176 156.235V133.961C353.176 133.315 352.703 133.187 351.992 133.187H333.63V119.12H353.477C355.29 119.12 363.171 119.637 365.679 129.715C366.468 132.805 368.208 142.879 369.392 146.11C370.572 149.722 375.372 156.946 380.49 156.946H411.797C412.152 156.946 412.531 156.906 412.931 156.833C410.763 159.783 408.375 162.573 405.826 165.181L392.621 162.352L392.511 162.408ZM305.614 182.375C302.242 183.101 298.931 180.954 298.208 177.579C297.488 174.207 299.629 170.876 303.005 170.154C306.376 169.433 309.688 171.581 310.41 174.95C311.131 178.321 308.987 181.652 305.614 182.375ZM281.732 85.8528C283.129 89.0033 281.708 92.6956 278.561 94.1003C275.411 95.499 271.738 94.0762 270.333 90.9298C268.928 87.7833 270.357 84.0869 273.504 82.6823C276.655 81.2856 280.327 82.7063 281.732 85.8528ZM274.407 103.191L287.853 97.2107C290.723 95.9365 292.027 92.5752 290.743 89.7057L287.974 83.4448H298.851V132.408H276.976C275.071 125.706 274.046 118.642 274.046 111.338C274.046 108.548 274.196 105.799 274.485 103.09L274.407 103.191ZM333.409 98.4348V83.9866H359.297C360.636 83.9866 368.75 85.5338 368.75 91.592C368.75 96.6288 362.528 98.4348 357.411 98.4348H333.329H333.409ZM427.531 111.438C427.531 113.357 427.46 115.251 427.32 117.137H419.433C418.644 117.137 418.327 117.655 418.327 118.427V122.039C418.327 130.548 413.531 132.414 409.316 132.876C405.303 133.327 400.867 131.198 400.326 128.742C397.958 115.437 394.024 112.608 387.803 107.672C395.529 102.775 403.557 95.5311 403.557 85.7987C403.557 75.3438 396.392 68.7619 391.516 65.5311C384.652 61.0161 377.066 60.113 375.019 60.113H293.541C304.598 47.792 319.63 39.0428 336.487 35.8321L346.1 45.9057C348.268 48.1732 351.86 48.2736 354.148 46.0903L364.905 35.816C387.381 40.01 406.447 54.0167 417.484 73.3411L410.119 89.9565C408.849 92.8261 410.145 96.1973 413.009 97.4615L427.177 103.763C427.422 106.271 427.551 108.819 427.551 111.388L427.531 111.438ZM346.052 27.3579C348.541 24.9699 352.494 25.0702 354.862 27.5605C357.23 30.0488 357.15 34.002 354.655 36.39C352.167 38.7779 348.213 38.6776 345.845 36.1853C343.477 33.697 343.558 29.7438 346.052 27.3559V27.3579ZM419.102 86.1538C420.497 83.0033 424.179 81.5786 427.33 82.9833C430.481 84.3799 431.906 88.0803 430.501 91.2308C429.106 94.3813 425.423 95.806 422.273 94.4013C419.122 93.0047 417.697 89.3043 419.102 86.1538Z" fill="#FDFDFD"/>
<defs>
<linearGradient id="paint0_linear_152_194" x1="160.639" y1="56.2496" x2="234.825" y2="126.954" gradientUnits="userSpaceOnUse">
<stop stop-color="#DCDCDC"/>
<stop offset="1" stop-color="#C5C5C5"/>
</linearGradient>
</defs>
</svg>
