<svg width="423" height="309" viewBox="0 0 423 309" fill="none" xmlns="http://www.w3.org/2000/svg">
<path d="M108.358 0C63.1709 3.22269e-06 65.9927 19.5879 65.9927 19.5879L66.0431 39.8808H109.164V45.9737H48.9154C48.9154 45.9737 20 42.6958 20 88.2715C20 133.847 45.238 132.231 45.238 132.231H60.3003V111.082C60.3003 111.082 59.4884 85.8545 85.1353 85.8545C110.782 85.8545 127.904 85.8545 127.904 85.8545C127.904 85.8545 151.933 86.2428 151.933 62.6411C151.933 39.0393 151.933 23.6163 151.933 23.6163C151.933 23.6163 155.581 0 108.358 0ZM84.5812 13.6461C88.8714 13.6461 92.339 17.1122 92.339 21.4007C92.339 25.6892 88.8714 29.1553 84.5812 29.1553C80.2909 29.1553 76.8234 25.6892 76.8234 21.4007C76.8234 17.1122 80.2909 13.6461 84.5812 13.6461Z" fill="white"/>
<path d="M109.642 177C154.829 177 152.007 157.412 152.007 157.412L151.957 137.119H108.836V131.026H169.085C169.085 131.026 198 134.304 198 88.7285C198 43.1528 172.762 44.769 172.762 44.769H157.7V65.9179C157.7 65.9179 158.512 91.1455 132.865 91.1455C107.218 91.1455 90.096 91.1455 90.096 91.1455C90.096 91.1455 66.067 90.7572 66.067 114.359C66.067 137.961 66.067 153.384 66.067 153.384C66.067 153.384 62.4187 177 109.642 177ZM133.419 163.354C129.129 163.354 125.661 159.888 125.661 155.599C125.661 151.311 129.129 147.845 133.419 147.845C137.709 147.845 141.177 151.311 141.177 155.599C141.177 159.888 137.709 163.354 133.419 163.354Z" fill="url(#paint0_linear_190_74)"/>
<path d="M20.6035 237.884C20.0718 237.884 19.9389 237.619 20.2047 237.22L22.9962 233.631C23.2621 233.232 23.9267 232.966 24.4584 232.966H71.913C72.4447 232.966 72.5777 233.365 72.3118 233.764L70.0521 237.22C69.7862 237.619 69.1216 238.017 68.7228 238.017L20.6035 237.884Z" fill="#C5C5C5"/>
<path d="M0.531705 250.114C0 250.114 -0.132926 249.848 0.132926 249.449L2.92438 245.86C3.19023 245.461 3.85486 245.195 4.38656 245.195H65.0009C65.5326 245.195 65.7985 245.594 65.6655 245.993L64.6021 249.183C64.4692 249.715 63.9375 249.981 63.4058 249.981L0.531705 250.114Z" fill="#C5C5C5"/>
<path d="M32.6998 262.343C32.1681 262.343 32.0351 261.944 32.301 261.545L34.162 258.222C34.4278 257.823 34.9595 257.425 35.4912 257.425H62.0765C62.6082 257.425 62.874 257.823 62.874 258.355L62.6082 261.545C62.6082 262.077 62.0765 262.476 61.6777 262.476L32.6998 262.343Z" fill="#C5C5C5"/>
<path d="M170.677 235.492C162.303 237.619 156.587 239.214 148.346 241.341C146.352 241.872 146.219 242.005 144.491 240.011C142.497 237.752 141.035 236.289 138.243 234.96C129.869 230.839 121.76 232.036 114.184 236.954C105.145 242.803 100.492 251.443 100.625 262.21C100.758 272.844 108.069 281.617 118.57 283.079C127.609 284.276 135.186 281.086 141.168 274.306C142.364 272.844 143.427 271.249 144.757 269.388C139.971 269.388 133.99 269.388 119.102 269.388C116.31 269.388 115.646 267.66 116.576 265.4C118.304 261.28 121.494 254.367 123.355 250.911C123.754 250.114 124.685 248.784 126.679 248.784C133.458 248.784 158.448 248.784 175.064 248.784C174.798 252.373 174.798 255.962 174.266 259.551C172.804 269.122 169.215 277.895 163.366 285.605C153.796 298.233 141.3 306.076 125.482 308.202C112.455 309.93 100.359 307.405 89.7251 299.429C79.8886 291.985 74.3057 282.149 72.8435 269.92C71.1155 255.431 75.3691 242.404 84.1422 230.972C93.58 218.61 106.075 210.768 121.362 207.976C133.857 205.716 145.82 207.179 156.587 214.489C163.632 219.142 168.683 225.522 172.006 233.232C172.804 234.428 172.272 235.093 170.677 235.492Z" fill="white"/>
<path d="M214.676 309C202.579 308.734 191.547 305.278 182.242 297.303C174.399 290.523 169.481 281.883 167.886 271.648C165.493 256.627 169.614 243.334 178.653 231.504C188.356 218.743 200.054 212.097 215.872 209.305C229.431 206.913 242.191 208.242 253.756 216.085C264.257 223.263 270.771 232.966 272.499 245.727C274.758 263.672 269.574 278.294 257.212 290.789C248.439 299.695 237.672 305.278 225.31 307.804C221.721 308.468 218.132 308.601 214.676 309ZM246.312 255.298C246.179 253.57 246.179 252.241 245.913 250.911C243.521 237.752 231.424 230.308 218.796 233.232C206.434 236.024 198.459 243.866 195.534 256.361C193.142 266.729 198.193 277.231 207.764 281.484C215.075 284.675 222.385 284.276 229.431 280.687C239.932 275.237 245.648 266.729 246.312 255.298Z" fill="white"/>
<path d="M421.503 120.431L412.693 114.973C412.619 114.114 412.534 113.258 412.442 112.405L420.028 105.341C420.798 104.623 421.144 103.559 420.935 102.532C420.732 101.498 420.008 100.647 419.022 100.284L409.329 96.6722C409.086 95.8334 408.832 95.0007 408.571 94.1639L414.611 85.7759C415.227 84.9231 415.354 83.8134 414.952 82.8462C414.551 81.8769 413.674 81.1826 412.645 81.012L402.43 79.3505C402.032 78.5759 401.619 77.8134 401.201 77.0629L405.496 67.6314C405.936 66.6722 405.845 65.5645 405.259 64.6816C404.675 63.8067 403.686 63.295 402.63 63.3351L392.255 63.6963C391.719 63.0261 391.173 62.3619 390.617 61.7097L393.005 51.6161C393.246 50.5906 392.943 49.509 392.197 48.7666C391.456 48.0241 390.38 47.7171 389.347 47.9579L379.252 50.3458C378.598 49.792 377.934 49.2441 377.262 48.7084L377.625 38.3338C377.665 37.2843 377.153 36.287 376.278 35.705C375.401 35.1191 374.291 35.0308 373.328 35.4662L363.916 39.7605C363.155 39.3431 362.393 38.9298 361.628 38.5304L359.962 28.3164C359.794 27.2809 359.099 26.402 358.128 26.0087C357.159 25.6053 356.041 25.7358 355.198 26.3498L346.809 32.39C345.983 32.1271 345.152 31.8742 344.321 31.6334L340.709 21.9411C340.341 20.9538 339.49 20.2294 338.461 20.0247C337.429 19.8221 336.374 20.1652 335.651 20.9318L328.587 28.5171C327.734 28.4227 326.875 28.3365 326.018 28.2662L320.56 19.4368C320.008 18.5438 319.031 18 317.971 18C316.911 18 315.944 18.5438 315.402 19.4368L309.943 28.2662C309.085 28.3365 308.226 28.4227 307.375 28.5171L300.311 20.9318C299.594 20.1652 298.53 19.8221 297.501 20.0247C296.467 20.2314 295.616 20.9538 295.253 21.9411L291.641 31.6334C290.802 31.8742 289.971 32.1291 289.152 32.39L280.764 26.3498C279.911 25.7338 278.799 25.6033 277.834 26.0087C276.864 26.41 276.168 27.289 275.999 28.3164L274.334 38.5304C273.563 38.9298 272.8 39.3411 272.046 39.7605L262.634 35.4662C261.676 35.0288 260.567 35.1191 259.684 35.705C258.809 36.287 258.297 37.2843 258.337 38.3338L258.698 48.7084C258.028 49.2441 257.364 49.792 256.707 50.3458L246.613 47.9579C245.587 47.7191 244.506 48.0241 243.763 48.7666C243.017 49.511 242.714 50.5846 242.954 51.6161L245.323 61.7097C244.771 62.3639 244.225 63.0261 243.689 63.6963L233.313 63.3351C232.268 63.305 231.266 63.8067 230.684 64.6816C230.098 65.5525 230.01 66.6682 230.446 67.6314L234.74 77.0629C234.323 77.8194 233.909 78.5819 233.51 79.3505L223.295 81.012C222.258 81.1806 221.383 81.8749 220.987 82.8462C220.586 83.8194 220.716 84.9331 221.328 85.7759L227.369 94.1639C227.106 94.9926 226.851 95.8254 226.611 96.6722L216.917 100.284C215.934 100.651 215.21 101.502 215.005 102.532C214.8 103.563 215.143 104.619 215.912 105.341L223.498 112.405C223.404 113.258 223.319 114.116 223.247 114.973L214.437 120.431C213.544 120.983 213 121.959 213 123.02C213 124.082 213.544 125.047 214.437 125.589L223.247 131.047C223.319 131.906 223.404 132.763 223.498 133.615L215.912 140.679C215.143 141.395 214.8 142.459 215.005 143.488C215.21 144.522 215.934 145.371 216.917 145.736L226.611 149.348C226.851 150.187 227.106 151.019 227.369 151.856L221.328 160.244C220.714 161.099 220.584 162.209 220.987 163.174C221.391 164.147 222.268 164.841 223.315 165.008L233.53 166.67C233.93 167.444 234.339 168.207 234.76 168.957L230.466 178.369C230.028 179.326 230.119 180.435 230.705 181.318C231.291 182.195 232.288 182.707 233.334 182.665L243.689 182.302C244.229 182.976 244.773 183.636 245.327 184.292L242.958 194.386C242.718 195.409 243.021 196.473 243.767 197.215C244.508 197.964 245.585 198.263 246.617 198.022L256.711 195.654C257.368 196.212 258.032 196.754 258.702 197.288L258.341 207.662C258.301 208.712 258.813 209.709 259.688 210.291C260.559 210.875 261.674 210.963 262.638 210.526L272.05 206.231C272.808 206.653 273.571 207.062 274.338 207.462L276.003 217.676C276.172 218.715 276.866 219.594 277.838 220.003C278.807 220.407 279.925 220.276 280.768 219.664L289.156 213.624C289.985 213.887 290.818 214.144 291.665 214.385L295.277 224.077C295.645 225.06 296.495 225.789 297.525 225.989C298.557 226.198 299.612 225.853 300.335 225.082L307.399 217.497C308.252 217.595 309.111 217.678 309.968 217.754L315.426 226.563C315.976 227.452 316.953 228 317.995 228C319.037 228 320.022 227.454 320.584 226.563L326.042 217.754C326.901 217.678 327.758 217.595 328.611 217.497L335.675 225.082C336.392 225.853 337.456 226.198 338.485 225.989C339.519 225.787 340.369 225.06 340.733 224.077L344.345 214.385C345.184 214.144 346.017 213.887 346.854 213.624L355.242 219.664C356.095 220.276 357.207 220.407 358.172 220.003C359.144 219.604 359.838 218.723 360.007 217.676L361.672 207.462C362.443 207.062 363.206 206.647 363.96 206.231L373.372 210.526C374.33 210.963 375.439 210.875 376.322 210.291C377.197 209.705 377.707 208.712 377.669 207.662L377.308 197.288C377.978 196.752 378.642 196.212 379.297 195.654L389.391 198.022C390.417 198.263 391.498 197.964 392.241 197.215C392.987 196.471 393.29 195.401 393.05 194.386L390.682 184.292C391.235 183.636 391.781 182.976 392.315 182.302L402.691 182.665C403.736 182.707 404.738 182.195 405.32 181.318C405.906 180.443 405.996 179.33 405.556 178.369L401.262 168.957C401.681 168.197 402.093 167.434 402.49 166.67L412.705 165.008C413.744 164.841 414.619 164.147 415.013 163.174C415.414 162.205 415.288 161.087 414.672 160.244L408.631 151.856C408.892 151.027 409.147 150.195 409.389 149.348L419.083 145.736C420.068 145.367 420.794 144.518 420.995 143.488C421.204 142.457 420.859 141.401 420.088 140.679L412.502 133.615C412.594 132.763 412.679 131.904 412.753 131.047L421.563 125.589C422.456 125.039 423 124.062 423 123.02C423 121.979 422.458 120.993 421.565 120.431H421.503ZM362.501 193.676C359.13 192.949 357.002 189.622 357.725 186.251C358.445 182.88 361.759 180.732 365.13 181.455C368.502 182.175 370.649 185.508 369.927 188.88C369.204 192.251 365.893 194.398 362.521 193.676H362.501ZM359.511 173.408C356.44 172.75 353.41 174.704 352.768 177.783L349.637 192.391C339.984 196.766 329.167 199.214 317.929 199.214C306.369 199.214 295.452 196.666 285.618 192.09L282.488 177.482C281.829 174.411 278.815 172.445 275.745 173.107L262.84 175.876C260.452 173.408 258.225 170.779 256.178 168.01H318.992C319.703 168.01 320.176 167.882 320.176 167.235V144.961C320.176 144.315 319.703 144.187 318.992 144.187H300.63V130.12H320.477C322.29 130.12 330.171 130.637 332.679 140.715C333.468 143.805 335.208 153.879 336.392 157.11C337.572 160.722 342.372 167.946 347.49 167.946H378.797C379.152 167.946 379.531 167.906 379.931 167.833C377.763 170.783 375.375 173.573 372.826 176.181L359.621 173.352L359.511 173.408ZM272.614 193.375C269.242 194.101 265.931 191.954 265.208 188.579C264.488 185.207 266.629 181.876 270.005 181.154C273.376 180.433 276.688 182.581 277.41 185.95C278.131 189.321 275.987 192.652 272.614 193.375ZM248.732 96.8528C250.129 100.003 248.708 103.696 245.561 105.1C242.411 106.499 238.738 105.076 237.333 101.93C235.928 98.7833 237.357 95.0869 240.504 93.6823C243.655 92.2856 247.327 93.7063 248.732 96.8528ZM241.407 114.191L254.853 108.211C257.723 106.936 259.027 103.575 257.743 100.706L254.974 94.4448H265.851V143.408H243.976C242.071 136.706 241.046 129.642 241.046 122.338C241.046 119.548 241.196 116.799 241.485 114.09L241.407 114.191ZM300.409 109.435V94.9866H326.297C327.636 94.9866 335.75 96.5338 335.75 102.592C335.75 107.629 329.528 109.435 324.411 109.435H300.329H300.409ZM394.531 122.438C394.531 124.357 394.46 126.251 394.32 128.137H386.433C385.644 128.137 385.327 128.655 385.327 129.427V133.039C385.327 141.548 380.531 143.414 376.316 143.876C372.303 144.327 367.867 142.198 367.326 139.742C364.958 126.437 361.024 123.608 354.803 118.672C362.529 113.775 370.557 106.531 370.557 96.7987C370.557 86.3438 363.392 79.7619 358.516 76.5311C351.652 72.0161 344.066 71.113 342.019 71.113H260.541C271.598 58.792 286.63 50.0428 303.487 46.8321L313.1 56.9057C315.268 59.1732 318.86 59.2736 321.148 57.0903L331.905 46.816C354.381 51.01 373.447 65.0167 384.484 84.3411L377.119 100.957C375.849 103.826 377.145 107.197 380.009 108.462L394.177 114.763C394.422 117.271 394.551 119.819 394.551 122.388L394.531 122.438ZM313.052 38.3579C315.541 35.9699 319.494 36.0702 321.862 38.5605C324.23 41.0488 324.15 45.002 321.655 47.39C319.167 49.7779 315.213 49.6776 312.845 47.1853C310.477 44.697 310.558 40.7438 313.052 38.3559V38.3579ZM386.102 97.1538C387.497 94.0033 391.179 92.5786 394.33 93.9833C397.481 95.3799 398.906 99.0803 397.501 102.231C396.106 105.381 392.423 106.806 389.273 105.401C386.122 104.005 384.697 100.304 386.102 97.1538Z" fill="#FDFDFD"/>
<defs>
<linearGradient id="paint0_linear_190_74" x1="91.2497" y1="71.6272" x2="185.742" y2="162.193" gradientUnits="userSpaceOnUse">
<stop stop-color="#DCDCDC"/>
<stop offset="1" stop-color="#C5C5C5"/>
</linearGradient>
</defs>
</svg>
