<svg width="1663" height="295" viewBox="0 0 1663 295" fill="none" xmlns="http://www.w3.org/2000/svg">
<path d="M227.546 54.2158C231.268 51.0266 235.521 48.9004 240.306 48.3689C249.344 46.7743 259.445 49.9635 265.825 57.405C275.395 69.0986 274.331 86.1077 262.635 95.6752L222.23 130.225L192.457 119.594L181.293 115.873L162.685 109.495L177.571 96.7383L186.609 89.2968L227.546 54.2158Z" fill="black"/>
<path d="M92.5074 240.783C88.7858 243.973 84.5326 246.099 79.7478 246.63C70.7097 248.225 60.6084 245.036 54.2286 237.594C44.6589 225.901 45.7222 208.892 57.4185 199.324L97.8239 164.774L127.596 175.405L138.761 179.126L157.369 185.504L142.482 198.261L132.913 206.234L92.5074 240.783Z" fill="black"/>
<path d="M112.71 41.9908C110.052 27.1079 119.621 12.7565 134.507 10.0989C149.394 7.44122 163.748 17.0088 166.406 31.8917L175.976 83.9818L152.052 104.18L122.28 93.5493L112.71 41.9908Z" fill="black"/>
<path d="M207.343 252.477C210.002 267.36 200.432 281.712 185.546 284.369C170.66 287.027 156.305 277.459 153.647 262.576L144.077 210.486L168.001 190.288L197.774 200.919L207.343 252.477Z" fill="black"/>
<path d="M291.344 194.009C288.154 203.576 279.648 209.955 270.61 211.549C265.825 212.612 261.04 212.081 256.787 210.486L206.812 192.946L195.647 189.225L177.039 182.846L165.875 179.126L136.102 168.495L124.938 164.774L106.33 157.333L95.1654 153.612L45.1903 136.072C30.8358 131.288 23.3927 115.342 28.7092 100.991C31.8991 91.423 40.4055 85.0446 49.4435 83.45C54.2284 82.387 59.0132 82.9185 63.2664 84.5131L113.241 102.054L124.406 105.774L143.014 112.153L154.179 115.873L183.951 126.504L195.116 130.225L213.723 136.603L224.888 140.324L274.863 157.864C289.218 164.243 296.661 179.657 291.344 194.009Z" fill="black"/>
<path d="M447.118 184.973C447.118 179.657 444.991 175.405 441.269 172.216C437.548 169.027 432.763 165.838 426.915 163.18C421.067 160.522 414.687 157.865 407.775 154.675C400.864 152.018 394.484 148.297 388.636 144.045C382.788 139.793 378.003 134.477 374.282 128.099C370.56 121.721 368.433 113.748 368.433 104.18C368.433 95.6755 370.028 88.234 372.687 82.3872C375.345 76.0088 379.598 71.225 384.915 66.9728C390.231 62.7205 396.079 60.0629 403.522 57.9367C410.434 55.8106 418.408 54.7476 427.446 54.7476C437.548 54.7476 447.118 55.8106 455.624 57.4052C464.13 58.9998 472.105 61.6575 477.422 64.8467L466.789 93.0178C463.067 90.8917 457.75 88.7656 450.307 86.6394C442.864 84.5133 435.421 83.9818 426.915 83.9818C418.94 83.9818 413.092 85.5764 408.839 88.7656C404.586 91.9548 402.459 96.207 402.459 101.522C402.459 106.306 404.586 110.558 408.307 113.748C412.029 116.937 416.813 120.126 422.662 122.784C428.51 125.441 434.89 128.63 441.801 131.288C448.712 134.477 455.092 137.666 460.94 141.919C466.789 146.171 471.573 151.486 475.295 157.333C479.017 163.712 481.143 171.153 481.143 180.189C481.143 189.225 479.548 197.198 476.358 204.108C473.168 211.018 468.915 216.333 463.599 220.585C458.282 224.838 451.371 228.558 443.396 230.685C435.421 232.811 426.915 233.874 417.345 233.874C405.117 233.874 393.953 232.811 384.915 230.153C375.345 228.027 368.433 225.369 364.18 223.243L374.813 194.54C376.408 195.603 379.066 196.666 381.725 197.73C384.383 198.793 388.104 199.856 391.294 200.919C395.016 201.982 398.737 202.513 402.991 203.576C407.244 204.108 410.965 204.639 415.219 204.639C425.32 204.639 432.763 203.045 438.079 199.324C444.459 197.198 447.118 191.883 447.118 184.973Z" fill="black"/>
<path d="M495.498 169.559C495.498 148.829 500.814 132.351 510.915 121.189C521.017 110.027 535.371 104.18 553.979 104.18C564.08 104.18 572.587 105.775 579.498 108.964C586.941 112.153 592.789 116.405 597.574 122.252C602.359 128.099 606.081 135.009 608.207 142.982C610.334 150.955 611.929 159.991 611.929 169.559C611.929 190.288 606.612 206.766 596.511 217.928C586.41 229.09 572.055 234.937 553.447 234.937C543.346 234.937 534.84 233.342 527.928 230.153C520.485 226.964 514.637 222.712 509.852 216.865C505.067 211.018 501.346 204.108 499.219 196.135C496.561 188.162 495.498 179.126 495.498 169.559ZM528.46 169.559C528.46 174.874 528.991 180.189 530.055 184.441C531.118 189.225 532.713 192.946 534.308 196.667C536.435 200.387 539.093 203.045 542.283 204.64C545.473 206.766 549.194 207.297 553.979 207.297C562.485 207.297 568.865 204.108 572.587 198.261C576.84 192.414 578.967 182.315 578.967 169.559C578.967 158.396 576.84 148.829 573.118 141.919C569.397 135.009 563.017 131.288 553.979 131.288C546.004 131.288 539.624 134.477 535.371 140.324C530.586 146.171 528.46 156.27 528.46 169.559Z" fill="black"/>
<path d="M659.777 107.901V178.063C659.777 188.162 660.841 195.604 663.499 199.856C665.626 204.108 670.41 206.766 677.322 206.766C683.17 206.766 688.487 205.171 692.74 201.45C696.993 197.73 699.651 193.477 701.778 188.162V108.432H733.677V194.541C733.677 201.45 734.208 207.829 734.74 214.207C735.272 220.586 736.335 226.432 737.93 231.748H713.474L707.626 213.676H707.094C703.373 220.054 698.056 225.369 691.145 229.09C684.233 233.342 676.259 235.468 667.221 235.468C660.841 235.468 655.524 234.405 650.208 232.811C645.423 231.216 641.17 228.559 637.98 224.838C634.79 221.117 632.132 215.802 630.537 209.423C628.942 203.045 627.878 195.072 627.878 184.973V107.901H659.777Z" fill="black"/>
<path d="M827.247 138.198C821.93 136.604 817.677 135.54 813.424 135.54C807.576 135.54 802.791 137.135 799.07 140.324C795.348 143.513 792.69 147.234 791.095 152.018V231.748H759.196V107.901H784.183L787.905 124.378H788.968C791.626 118.531 795.348 113.748 800.133 110.027C804.918 106.306 810.766 105.243 817.146 105.243C821.399 105.243 830.437 107.369 835.222 109.495L827.247 138.198Z" fill="black"/>
<path d="M931.45 223.775C926.666 227.496 920.286 230.153 913.374 232.279C906.463 234.405 899.02 234.937 891.577 234.937C881.475 234.937 873.501 233.342 866.589 230.153C859.678 226.964 854.361 222.712 850.108 216.865C845.855 211.018 842.665 204.108 841.07 196.135C838.943 188.162 838.412 179.126 838.412 169.559C838.412 148.829 843.196 132.351 852.766 121.189C862.336 110.027 875.627 104.18 893.703 104.18C902.741 104.18 910.184 104.712 915.501 106.306C920.817 107.901 926.134 109.495 930.387 112.153L922.944 138.198C919.222 136.604 915.501 135.009 911.779 133.946C908.058 132.883 903.805 132.351 899.02 132.351C889.982 132.351 883.602 135.541 878.817 141.387C874.032 147.234 871.906 156.802 871.906 169.559C871.906 174.874 872.437 179.658 873.501 183.91C874.564 188.162 876.159 192.414 878.817 195.604C880.944 198.793 884.134 201.45 887.855 203.577C891.577 205.703 895.83 206.234 900.615 206.234C905.931 206.234 910.716 205.703 914.438 204.108C918.159 202.514 921.349 200.919 924.539 198.793L931.45 223.775Z" fill="black"/>
<path d="M1044.69 220.586C1039.91 224.306 1033 228.027 1024.49 230.685C1015.98 233.342 1006.94 234.937 997.375 234.937C977.173 234.937 962.818 229.09 953.78 217.396C944.742 205.703 939.957 189.757 939.957 169.559C939.957 147.766 945.273 131.288 955.375 120.658C965.476 110.027 980.362 104.18 998.97 104.18C1005.35 104.18 1011.2 105.243 1017.05 106.838C1022.89 108.432 1028.21 111.09 1033 114.811C1037.78 118.532 1041.5 123.847 1044.16 130.225C1046.82 136.604 1048.41 144.577 1048.41 154.144C1048.41 157.865 1048.41 161.054 1047.88 165.306C1047.35 169.027 1046.82 173.279 1046.29 177.532H971.856C972.388 188.162 975.046 195.604 979.831 200.919C984.616 206.234 992.59 208.892 1003.22 208.892C1010.13 208.892 1015.98 207.829 1021.3 205.703C1026.62 203.577 1030.87 201.45 1033.53 199.324L1044.69 220.586ZM998.438 130.225C989.932 130.225 983.552 132.883 979.831 137.667C975.578 142.45 973.451 149.36 972.388 157.865H1018.11C1018.64 148.829 1017.58 141.919 1013.86 137.135C1011.2 132.351 1005.88 130.225 998.438 130.225Z" fill="black"/>
<path d="M1173.35 231.216C1173.35 249.288 1168.57 262.576 1159 271.081C1149.43 279.585 1135.6 283.838 1118.06 283.838C1106.36 283.838 1096.79 282.775 1089.88 281.18C1082.97 279.585 1077.65 277.991 1074.46 275.865L1081.38 250.351C1085.1 251.946 1089.35 253.54 1094.67 254.603C1099.98 255.666 1105.83 256.729 1113.27 256.729C1124.44 256.729 1131.88 254.072 1136.14 249.288C1140.39 244.504 1141.98 237.594 1141.98 229.09V221.117H1140.92C1135.07 229.09 1124.97 232.811 1110.08 232.811C1094.13 232.811 1082.44 228.027 1074.46 217.928C1066.49 207.829 1062.77 192.414 1062.77 171.684C1062.77 149.36 1068.08 132.883 1078.72 121.72C1089.35 110.558 1104.77 104.711 1124.44 104.711C1135.07 104.711 1144.64 105.243 1152.62 106.838C1160.59 108.432 1167.5 110.027 1172.82 112.153V231.216H1173.35ZM1118.59 207.829C1124.97 207.829 1129.76 206.234 1132.95 203.576C1136.14 200.919 1138.79 196.666 1140.92 190.82V135.54C1135.6 133.414 1129.22 132.351 1121.78 132.351C1113.27 132.351 1106.89 135.54 1102.64 141.387C1097.86 147.765 1095.73 157.333 1095.73 171.153C1095.73 183.378 1097.86 192.414 1101.58 198.793C1105.83 204.639 1111.15 207.829 1118.59 207.829Z" fill="black"/>
<path d="M1265.86 138.198C1260.54 136.604 1256.29 135.54 1252.03 135.54C1246.19 135.54 1241.4 137.135 1237.68 140.324C1233.96 143.513 1231.3 147.234 1229.71 152.018V231.748H1197.81V107.901H1222.79L1226.52 124.378H1227.58C1230.24 118.531 1233.96 113.748 1238.74 110.027C1243.53 106.306 1249.38 105.243 1255.76 105.243C1260.01 105.243 1264.79 106.306 1270.11 107.901L1265.86 138.198Z" fill="black"/>
<path d="M1281.81 113.748C1288.19 110.558 1292.97 109.495 1302.01 107.901C1311.05 106.306 1320.62 105.243 1330.19 105.243C1338.69 105.243 1346.14 106.306 1351.45 108.432C1356.77 110.558 1361.55 113.216 1365.28 117.468C1368.47 121.189 1371.12 125.973 1372.19 131.288C1373.78 136.604 1374.31 142.45 1374.31 148.829C1374.31 156.27 1374.31 163.18 1373.78 170.622C1373.25 178.063 1373.25 184.973 1372.72 192.414C1372.72 199.324 1372.72 206.234 1373.25 213.144C1373.78 220.054 1374.85 225.901 1376.97 232.279H1350.92L1345.61 215.27H1345.07C1341.88 220.586 1337.1 224.838 1331.25 228.558C1325.4 232.279 1317.96 233.874 1308.39 233.874C1302.54 233.874 1297.23 232.811 1292.97 231.216C1288.19 229.622 1284.47 226.964 1281.28 223.775C1278.09 220.586 1275.43 216.865 1273.83 212.613C1272.24 208.36 1271.17 203.577 1271.17 197.73C1271.17 190.288 1272.77 183.91 1276.49 178.595C1280.21 173.279 1284.47 169.027 1290.85 165.838C1297.23 162.649 1304.67 160.522 1313.71 158.928C1322.74 157.333 1332.31 157.333 1343.48 157.865C1344.54 148.829 1344.01 141.919 1341.35 138.198C1338.69 133.946 1333.38 132.351 1324.87 132.351C1318.49 132.351 1311.58 132.883 1304.67 134.477C1297.76 136.072 1294.57 136.604 1290.31 138.73L1281.81 113.748ZM1319.55 206.766C1325.93 206.766 1331.25 205.171 1334.97 202.513C1338.69 199.856 1341.35 196.667 1343.48 193.477V177.531C1338.16 177 1333.38 177 1328.59 177.531C1323.81 178.063 1319.55 178.595 1316.36 179.658C1313.17 180.721 1309.98 182.315 1307.86 184.441C1305.73 186.567 1304.67 189.225 1304.67 192.414C1304.67 197.198 1306.26 200.387 1308.92 203.045C1311.05 205.703 1314.77 206.766 1319.55 206.766Z" fill="black"/>
<path d="M1398.77 107.901H1422.16L1425.88 122.783H1426.95C1431.2 116.405 1436.52 112.153 1442.37 108.964C1448.21 105.774 1455.13 104.711 1463.63 104.711C1479.05 104.711 1490.75 109.495 1498.72 119.594C1506.7 129.693 1510.42 145.108 1510.42 166.901C1510.42 177.531 1509.35 187.099 1506.7 195.603C1504.04 204.108 1500.32 211.549 1495.53 217.396C1490.75 223.243 1484.9 228.027 1477.99 231.216C1471.07 234.405 1463.1 236 1454.06 236C1448.75 236 1444.49 235.468 1441.3 234.937C1438.11 234.405 1434.92 232.811 1431.2 231.216V281.711H1399.3V107.901H1398.77ZM1454.06 131.82C1447.68 131.82 1442.9 133.414 1439.18 136.603C1435.45 139.793 1432.8 144.576 1430.67 150.955V201.982C1432.8 203.576 1435.45 205.171 1438.11 206.234C1440.77 207.297 1444.49 207.829 1448.75 207.829C1457.78 207.829 1464.69 204.639 1469.48 198.261C1474.26 191.883 1476.39 181.252 1476.39 165.838C1476.39 155.207 1474.8 146.702 1471.07 140.856C1467.88 134.477 1462.04 131.82 1454.06 131.82Z" fill="black"/>
<path d="M1603.99 231.216V161.054C1603.99 150.955 1602.39 143.513 1599.73 139.261C1597.08 135.009 1591.76 132.883 1584.32 132.883C1579 132.883 1573.68 134.477 1569.43 138.198C1564.65 141.919 1561.99 146.702 1560.39 152.549V231.216H1528.49V58.4683H1560.39V121.721H1561.46C1565.18 116.405 1570.49 112.153 1575.81 108.964C1581.66 105.775 1589.1 104.18 1597.61 104.18C1603.99 104.18 1609.3 105.243 1614.09 106.838C1618.87 108.432 1623.13 111.09 1626.32 114.811C1629.51 118.531 1632.16 123.847 1633.23 130.225C1634.29 136.603 1635.35 144.576 1635.35 154.144V231.216H1603.99Z" fill="black"/>
</svg>
