<svg width="235" height="71" viewBox="0 0 235 71" fill="none" xmlns="http://www.w3.org/2000/svg">
<g style="mix-blend-mode:luminosity">
<path fill-rule="evenodd" clip-rule="evenodd" d="M145.606 55.1463C132.008 65.1692 112.298 70.5168 95.3286 70.5168C71.5343 70.5168 50.1135 61.7161 33.9076 47.0791C32.6346 45.9279 33.7754 44.3594 35.3032 45.2558C52.7923 55.4315 74.417 61.5532 96.7546 61.5532C111.82 61.5532 128.392 58.4363 143.63 51.9683C145.932 50.9905 147.857 53.4758 145.606 55.1463" fill="#606060"/>
<path fill-rule="evenodd" clip-rule="evenodd" d="M151.259 48.6783C149.528 46.4576 139.77 47.629 135.39 48.1485C134.055 48.3116 133.852 47.1503 135.054 46.3151C142.825 40.8454 155.578 42.4242 157.065 44.2575C158.552 46.1012 156.678 58.8844 149.375 64.9857C148.254 65.9229 147.185 65.4238 147.684 64.181C149.324 60.0865 153.001 50.909 151.259 48.6783" fill="#606060"/>
<path fill-rule="evenodd" clip-rule="evenodd" d="M135.695 7.70047V2.38352C135.695 1.5788 136.306 1.03896 137.04 1.03896H160.844C161.608 1.03896 162.219 1.58886 162.219 2.38352V6.93646C162.209 7.70047 161.567 8.69872 160.427 10.2775L148.091 27.8888C152.675 27.777 157.513 28.4593 161.669 30.8021C162.606 31.3317 162.861 32.106 162.932 32.8697V38.5433C162.932 39.3174 162.076 40.2239 161.18 39.7554C153.857 35.9155 144.129 35.4978 136.031 39.7961C135.206 40.2445 134.34 39.348 134.34 38.574V33.1856C134.34 32.3198 134.351 30.8428 135.216 29.5289L149.507 9.03497H137.07C136.306 9.03497 135.695 8.49514 135.695 7.70047V7.70047ZM48.8607 40.8758H41.6184C40.9258 40.825 40.3759 40.3056 40.3249 39.6433V2.47525C40.3249 1.7316 40.9462 1.14075 41.7202 1.14075H48.4735C49.1764 1.17117 49.7366 1.71124 49.7876 2.38329V7.2423H49.9201C51.6821 2.54662 54.9925 0.35685 59.4539 0.35685C63.9865 0.35685 66.8184 2.54662 68.8556 7.2423C70.6075 2.54662 74.5902 0.35685 78.8581 0.35685C81.8933 0.35685 85.214 1.60969 87.2409 4.42096C89.5327 7.5479 89.0643 12.0908 89.0643 16.0735L89.054 39.5315C89.054 40.2751 88.4327 40.8761 87.6586 40.8761H80.4266C79.7036 40.8253 79.1228 40.2447 79.1228 39.5315V19.832C79.1228 18.2632 79.2655 14.3517 78.9192 12.8649C78.3794 10.3692 76.7599 9.66631 74.6613 9.66631C72.9094 9.66631 71.076 10.8377 70.3323 12.7121C69.5889 14.5864 69.6603 17.7234 69.6603 19.832V39.5313C69.6603 40.2749 69.0388 40.8758 68.2647 40.8758H61.0327C60.2994 40.825 59.7289 40.2445 59.7289 39.5313L59.7188 19.832C59.7188 15.6862 60.4011 9.58511 55.2574 9.58511C50.0525 9.58511 50.2561 15.5334 50.2561 19.832V39.5313C50.2561 40.2749 49.6348 40.8758 48.8607 40.8758V40.8758ZM182.713 0.356616C193.459 0.356616 199.275 9.58488 199.275 21.319C199.275 32.6559 192.848 41.6501 182.713 41.6501C172.16 41.6501 166.416 32.4216 166.416 20.9217C166.416 9.35064 172.232 0.356616 182.713 0.356616V0.356616ZM182.774 7.945C177.437 7.945 177.101 15.2177 177.101 19.7503C177.101 24.2934 177.03 33.9901 182.713 33.9901C188.326 33.9901 188.59 26.1675 188.59 21.4005C188.59 18.2632 188.458 14.5148 187.511 11.5406C186.696 8.95331 185.076 7.945 182.774 7.945H182.774ZM213.21 40.8758H205.998C205.275 40.825 204.694 40.2445 204.694 39.5313L204.684 2.35287C204.745 1.67053 205.346 1.14075 206.079 1.14075H212.792C213.424 1.17117 213.943 1.59939 214.086 2.17971V7.86357H214.218C216.245 2.78086 219.087 0.356616 224.088 0.356616C227.337 0.356616 230.505 1.52779 232.543 4.73639C234.437 7.71053 234.437 12.7121 234.437 16.3077V39.7044C234.356 40.3563 233.755 40.8758 233.042 40.8758H225.779C225.117 40.825 224.567 40.336 224.496 39.7044V19.5161C224.496 15.452 224.964 9.50321 219.963 9.50321C218.201 9.50321 216.581 10.6849 215.777 12.4776C214.758 14.7493 214.625 17.0104 214.625 19.5163V39.5313C214.615 40.2749 213.984 40.8758 213.21 40.8758V40.8758ZM116.719 23.122C116.719 25.9433 116.79 28.2965 115.364 30.8019C114.213 32.8393 112.38 34.0919 110.353 34.0919C107.572 34.0919 105.942 31.9735 105.942 28.8464C105.942 22.6737 111.473 21.5533 116.719 21.5533V23.122V23.122ZM124.022 40.774C123.543 41.2018 122.851 41.2324 122.311 40.9472C119.907 38.9507 119.469 38.0238 118.155 36.1191C114.183 40.1731 111.361 41.3852 106.217 41.3852C100.116 41.3852 95.3795 37.6265 95.3795 30.0994C95.3795 24.222 98.5574 20.219 103.1 18.2632C107.032 16.5316 112.522 16.226 116.719 15.7473V14.8103C116.719 13.0888 116.851 11.0516 115.833 9.56452C114.957 8.23025 113.266 7.68011 111.769 7.68011C109.008 7.68011 106.553 9.09581 105.953 12.0295C105.83 12.6814 105.351 13.323 104.689 13.3537L97.6713 12.6C97.0807 12.4675 96.4184 11.9888 96.5916 11.0822C98.201 2.56698 105.902 0 112.787 0C116.312 0 120.916 0.93717 123.697 3.60594C127.221 6.89598 126.885 11.2858 126.885 16.0632V27.349C126.885 30.741 128.29 32.2279 129.614 34.0615C130.073 34.7134 130.175 35.4978 129.584 35.9866C128.107 37.2191 125.479 39.5109 124.033 40.7944L124.022 40.774H124.022ZM21.7764 23.122C21.7764 25.9433 21.8478 28.2965 20.4215 30.8019C19.2707 32.8393 17.4474 34.0919 15.4102 34.0919C12.6296 34.0919 11.0098 31.9735 11.0098 28.8464C11.0098 22.6737 16.5409 21.5533 21.7764 21.5533V23.122ZM29.0795 40.774C28.601 41.2018 27.9084 41.2324 27.3685 40.9472C24.9647 38.9507 24.5367 38.0238 23.2127 36.1191C19.2401 40.1731 16.429 41.3852 11.2747 41.3852C5.1837 41.3852 0.437012 37.6265 0.437012 30.0994C0.437012 24.222 3.62526 20.219 8.15784 18.2632C12.0897 16.5316 17.5799 16.226 21.7764 15.7473V14.8103C21.7764 13.0888 21.9089 11.0516 20.9003 9.56452C20.0142 8.23025 18.3235 7.68011 16.8362 7.68011C14.0759 7.68011 11.611 9.09581 11.0098 12.0295C10.8877 12.6814 10.4089 13.323 9.757 13.3537L2.72881 12.6C2.13796 12.4675 1.48627 11.9888 1.64913 11.0822C3.26865 2.56698 10.9591 0 17.8447 0C21.3688 0 25.973 0.93717 28.7538 3.60594C32.2779 6.89598 31.9418 11.2858 31.9418 16.0632V27.349C31.9418 30.741 33.3475 32.2279 34.6717 34.0615C35.1404 34.7134 35.2422 35.4978 34.6513 35.9866C33.1743 37.2191 30.5465 39.5109 29.1001 40.7944L29.0798 40.774" fill="#606060"/>
</g>
</svg>
