<svg width="88" height="27" viewBox="0 0 88 27" fill="none" xmlns="http://www.w3.org/2000/svg">
<g style="mix-blend-mode:luminosity">
<g style="mix-blend-mode:luminosity">
<path fill-rule="evenodd" clip-rule="evenodd" d="M54.5249 20.9711C49.4329 24.7827 42.0521 26.8163 35.6976 26.8163C26.7874 26.8163 18.766 23.4695 12.6974 17.9033C12.2207 17.4655 12.6479 16.8691 13.22 17.21C19.7691 21.0796 27.8669 23.4076 36.2316 23.4076C41.8731 23.4076 48.0788 22.2223 53.785 19.7626C54.647 19.3908 55.3678 20.3359 54.5249 20.9711Z" fill="#59606F"/>
</g>
<g style="mix-blend-mode:luminosity">
<path fill-rule="evenodd" clip-rule="evenodd" d="M56.6417 18.5114C55.9935 17.667 52.3395 18.1124 50.6993 18.31C50.1994 18.372 50.1234 17.9304 50.5735 17.6128C53.4835 15.5327 58.2591 16.1331 58.8159 16.8303C59.3727 17.5314 58.671 22.3926 55.9362 24.7129C55.5165 25.0693 55.1162 24.8795 55.303 24.4068C55.9171 22.8498 57.2941 19.3597 56.6417 18.5114Z" fill="#59606F"/>
</g>
<g style="mix-blend-mode:luminosity">
<path fill-rule="evenodd" clip-rule="evenodd" d="M50.8135 2.92835V0.906409C50.8135 0.600389 51.0423 0.395097 51.3171 0.395097H60.231C60.5171 0.395097 60.7459 0.604214 60.7459 0.906409V2.63781C60.7421 2.92835 60.5017 3.30796 60.0748 3.90834L55.4554 10.6056C57.172 10.5631 58.9836 10.8225 60.5399 11.7135C60.8908 11.9149 60.9863 12.2093 61.0129 12.4997V14.6573C61.0129 14.9517 60.6923 15.2964 60.3568 15.1182C57.6146 13.658 53.9718 13.4992 50.9393 15.1337C50.6304 15.3042 50.3061 14.9633 50.3061 14.669V12.6199C50.3061 12.2906 50.3102 11.729 50.6341 11.2293L55.9856 3.43583H51.3284C51.0423 3.43583 50.8135 3.23055 50.8135 2.92835ZM18.2968 15.5443H15.5848C15.3255 15.525 15.1195 15.3275 15.1004 15.0756V0.941292C15.1004 0.658496 15.3331 0.433806 15.6229 0.433806H18.1518C18.415 0.445374 18.6248 0.650753 18.6439 0.906321V2.75411H18.6935C19.3533 0.968433 20.593 0.135704 22.2636 0.135704C23.9609 0.135704 25.0214 0.968433 25.7843 2.75411C26.4403 0.968433 27.9317 0.135704 29.5299 0.135704C30.6665 0.135704 31.91 0.612136 32.669 1.68121C33.5272 2.87033 33.3518 4.59791 33.3518 6.11246L33.3479 15.0331C33.3479 15.3159 33.1153 15.5444 32.8254 15.5444H30.1172C29.8465 15.5251 29.629 15.3043 29.629 15.0331V7.54175C29.629 6.94516 29.6824 5.45769 29.5528 4.89229C29.3506 3.94322 28.7442 3.67592 27.9583 3.67592C27.3023 3.67592 26.6157 4.12138 26.3372 4.83418C26.0589 5.54694 26.0856 6.73988 26.0856 7.54175V15.033C26.0856 15.3158 25.8529 15.5443 25.563 15.5443H22.8548C22.5802 15.525 22.3666 15.3042 22.3666 15.033L22.3628 7.54175C22.3628 5.96517 22.6183 3.64504 20.6922 3.64504C18.7431 3.64504 18.8194 5.90707 18.8194 7.54175V15.033C18.8194 15.3158 18.5867 15.5443 18.2968 15.5443ZM68.4202 0.135615C72.4443 0.135615 74.6222 3.64495 74.6222 8.10722C74.6222 12.4184 72.2155 15.8388 68.4202 15.8388C64.4685 15.8388 62.3175 12.3293 62.3175 7.95614C62.3175 3.55588 64.4954 0.135615 68.4202 0.135615ZM68.4431 3.02134C66.4445 3.02134 66.3187 5.78701 66.3187 7.51068C66.3187 9.23833 66.2921 12.9258 68.4202 12.9258C70.5221 12.9258 70.621 9.95102 70.621 8.13822C70.621 6.94516 70.5716 5.51971 70.2169 4.38868C69.9117 3.40478 69.3051 3.02134 68.4431 3.02134ZM79.8404 15.5443H77.1397C76.869 15.525 76.6514 15.3042 76.6514 15.033L76.6477 0.894753C76.6705 0.635272 76.8956 0.433806 77.1701 0.433806H79.6839C79.9205 0.445374 80.1149 0.608219 80.1684 0.828904V2.99037H80.2178C80.9769 1.05751 82.0411 0.135615 83.9138 0.135615C85.1305 0.135615 86.3168 0.580991 87.08 1.80116C87.7892 2.93217 87.7892 4.83418 87.7892 6.20152V15.0989C87.7589 15.3468 87.5338 15.5443 87.2668 15.5443H84.5471C84.2992 15.525 84.0932 15.339 84.0666 15.0989V7.42161C84.0666 5.87611 84.2419 3.6139 82.3692 3.6139C81.7094 3.6139 81.1027 4.06327 80.8016 4.745C80.4201 5.60889 80.3703 6.46874 80.3703 7.42169V15.033C80.3665 15.3158 80.1302 15.5443 79.8404 15.5443ZM43.7076 8.79287C43.7076 9.86576 43.7342 10.7606 43.2002 11.7134C42.7692 12.4882 42.0828 12.9645 41.3237 12.9645C40.2823 12.9645 39.6719 12.1589 39.6719 10.9698C39.6719 8.62239 41.7431 8.19632 43.7076 8.19632V8.79287ZM46.4423 15.5056C46.263 15.6683 46.0038 15.6799 45.8016 15.5715C44.9014 14.8122 44.7374 14.4598 44.2453 13.7354C42.7579 15.2771 41.7012 15.738 39.7749 15.738C37.4903 15.738 35.7166 14.3087 35.7166 11.4462C35.7166 9.21118 36.9066 7.68892 38.6077 6.94516C40.0801 6.28666 42.1359 6.17045 43.7076 5.98841V5.63209C43.7076 4.97743 43.757 4.20272 43.3758 3.63721C43.0478 3.12981 42.4145 2.9206 41.854 2.9206C40.8201 2.9206 39.9007 3.45897 39.6761 4.5746C39.63 4.8225 39.4506 5.06649 39.2027 5.07817L36.5748 4.79155C36.3537 4.74116 36.1057 4.55912 36.1705 4.21436C36.7732 0.976176 39.657 0 42.2352 0C43.5552 0 45.2792 0.356389 46.3206 1.37127C47.6402 2.62241 47.5144 4.29178 47.5144 6.10854V10.4003C47.5144 11.6902 48.0406 12.2557 48.5364 12.953C48.7082 13.2009 48.7464 13.4992 48.5251 13.685C47.972 14.1537 46.9879 15.0253 46.4464 15.5134L46.4423 15.5056ZM8.15462 8.79287C8.15462 9.86576 8.18135 10.7606 7.64725 11.7134C7.21631 12.4882 6.53354 12.9645 5.77068 12.9645C4.72943 12.9645 4.12287 12.1589 4.12287 10.9698C4.12287 8.62239 6.19409 8.19632 8.15462 8.19632V8.79287ZM10.8894 15.5056C10.7102 15.6683 10.4509 15.6799 10.2487 15.5715C9.34853 14.8122 9.18826 14.4598 8.69246 13.7354C7.20485 15.2771 6.15219 15.738 4.22206 15.738C1.94118 15.738 0.163696 14.3087 0.163696 11.4462C0.163696 9.21118 1.35759 7.68892 3.0549 6.94516C4.52726 6.28666 6.58316 6.17045 8.15462 5.98841V5.63209C8.15462 4.97743 8.20423 4.20272 7.82654 3.63721C7.49473 3.12981 6.86162 2.9206 6.30467 2.9206C5.27102 2.9206 4.348 3.45897 4.12287 4.5746C4.07715 4.8225 3.89785 5.06649 3.65373 5.07817L1.0219 4.79155C0.800647 4.74116 0.55661 4.55912 0.617596 4.21436C1.22405 0.976176 4.10388 0 6.68232 0C8.00198 0 9.72611 0.356389 10.7674 1.37127C12.0871 2.62241 11.9612 4.29178 11.9612 6.10854V10.4003C11.9612 11.6902 12.4876 12.2557 12.9835 12.953C13.159 13.2009 13.1971 13.4992 12.9759 13.685C12.4228 14.1537 11.4387 15.0253 10.8971 15.5134L10.8895 15.5056" fill="#59606F"/>
</g>
</g>
</svg>
