<svg width="148" height="28" viewBox="0 0 148 28" fill="none" xmlns="http://www.w3.org/2000/svg">
<path d="M9.61116 27.5684H4.05812V13.9791H0.275269V9.55466H4.05796V6.4064C4.05796 2.67565 5.73106 0 11.2691 0C12.4404 0 14.2793 0.23176 14.2793 0.23176V4.34007H12.3478C10.3799 4.34007 9.61148 4.92772 9.61148 6.55237V9.55466H14.2056L13.7965 13.9791H9.61129L9.61116 27.5684ZM22.3528 9.20111C22.2719 9.20111 22.1886 9.20397 22.1063 9.20603C16.9571 9.20603 14.6013 13.0082 14.6013 18.4055C14.6013 25.2047 17.6571 27.926 22.1465 27.926C24.715 27.926 26.4025 26.8646 27.4282 24.8841V27.5704H32.71V9.55659H27.4282V12.3268C26.5907 10.5445 24.856 9.22221 22.3528 9.20111ZM23.6958 13.4577C25.8584 13.4577 27.1565 14.9386 27.1565 17.4574L27.1615 20.03C27.1615 21.7278 26.0894 23.7139 23.6958 23.7139C20.0159 23.7139 20.1143 19.8133 20.1143 18.5142C20.1143 14.1442 22.0748 13.4577 23.6958 13.4577ZM34.843 18.5644C34.843 16.3754 34.7363 9.21281 44.2423 9.21281C48.0582 9.21281 49.6515 10.4039 49.6515 10.4039L48.3709 14.3031C48.3709 14.3031 46.7796 13.4429 44.7061 13.4429C42.0503 13.4429 40.3557 14.9543 40.3557 17.6135L40.3586 19.5202C40.3586 22.0754 41.9937 23.781 44.7115 23.781C46.6005 23.781 48.3416 22.9127 48.3416 22.9127L49.619 26.7305C49.619 26.7305 48.162 27.9291 44.269 27.9291C35.2177 27.9291 34.8431 21.5029 34.8431 18.5644H34.843ZM80.6204 9.20603C85.7695 9.20603 88.1627 13.0082 88.1627 18.4055C88.1627 25.2047 85.1063 27.926 80.6172 27.926C78.0489 27.926 76.1501 26.8648 75.1242 24.8841V27.5704L69.9089 27.5683V0.547717L75.446 0.0736369V12.0827C76.2452 9.98175 78.8721 9.20603 80.6204 9.20603ZM79.0679 13.4577C76.9052 13.4577 75.446 14.9386 75.446 17.4574L75.441 20.03C75.4378 21.7278 76.4518 23.7139 79.0679 23.7139C82.7478 23.7139 82.6495 19.8133 82.6495 18.5142C82.6495 14.1442 80.689 13.4577 79.0679 13.4577ZM59.2592 9.2209C53.4189 9.2209 50.3356 12.3468 50.3356 17.9018V18.9338C50.3356 26.1437 54.6655 28 59.8276 28C64.8448 28 67.1165 26.6223 67.1165 26.6223L66.0798 22.9535C66.0798 22.9535 63.4083 24.0694 60.4915 24.0694C57.4674 24.0694 56.1669 23.3127 55.8335 20.4599H67.5592V17.5166C67.5592 11.4908 64.0985 9.22077 59.259 9.22077L59.2592 9.2209ZM59.3999 12.8947C61.4216 12.8947 62.7315 14.1116 62.6596 16.934H55.8437C55.9619 13.9635 57.3746 12.8948 59.3999 12.8948V12.8947ZM99.2035 9.1962C93.206 9.1962 90.0489 12.514 90.0489 18.4598C90.0489 26.6177 95.4915 27.9309 99.2136 27.9309C104.663 27.9309 108.288 25.0509 108.288 18.5339C108.288 11.7507 104.212 9.1962 99.2035 9.1962ZM99.1285 13.4725C101.765 13.4725 102.81 15.41 102.81 17.6155V19.5117C102.81 22.1834 101.349 23.7288 99.1185 23.7288C97.0326 23.7288 95.5671 22.2833 95.5671 19.5117V17.6155C95.5671 14.6596 97.311 13.4725 99.1285 13.4725ZM119.32 9.1962C113.322 9.1962 110.164 12.514 110.164 18.4598C110.164 26.6177 115.607 27.9309 119.33 27.9309C124.779 27.9309 128.404 25.0509 128.404 18.5339C128.404 11.7507 124.328 9.1962 119.32 9.1962ZM119.244 13.4725C121.881 13.4725 122.926 15.41 122.926 17.6155V19.5117C122.926 22.1834 121.464 23.7288 119.234 23.7288C117.149 23.7288 115.683 22.2833 115.683 19.5117V17.6155C115.683 14.6596 117.427 13.4725 119.244 13.4725ZM130.496 27.5684V0.547717L136.05 0.0737812V18.1848L141.559 9.55484H147.424L141.677 18.4929L147.645 27.5684H141.764L136.05 18.7561V27.5684H130.496Z" fill="#59606F"/>
</svg>
