<svg width="235" height="45" viewBox="0 0 235 45" fill="none" xmlns="http://www.w3.org/2000/svg">
<path d="M15.2609 44.3064H6.44356V22.4664H0.437012V15.3557H6.44332V10.296C6.44332 4.30016 9.09993 0 17.8934 0C19.7532 0 22.6731 0.372472 22.6731 0.372472V6.97512H19.6063C16.4815 6.97512 15.2614 7.91955 15.2614 10.5306V15.3557H22.5561L21.9065 22.4664H15.2611L15.2609 44.3064ZM35.4926 14.7875C35.3641 14.7875 35.2319 14.7921 35.1011 14.7954C26.9251 14.7954 23.1844 20.9061 23.1844 29.5803C23.1844 40.5076 28.0366 44.881 35.165 44.881C39.2433 44.881 41.9229 43.1753 43.5515 39.9923V44.3095H51.9381V15.3588H43.5515V19.811C42.2217 16.9465 39.4673 14.8214 35.4926 14.7875V14.7875ZM37.625 21.6285C41.0589 21.6285 43.12 24.0084 43.12 28.0565L43.128 32.1911C43.128 34.9196 41.4256 38.1116 37.625 38.1116C31.782 38.1116 31.9381 31.8428 31.9381 29.7549C31.9381 22.7317 35.0512 21.6285 37.625 21.6285V21.6285ZM55.325 29.8356C55.325 26.3176 55.1556 14.8063 70.2495 14.8063C76.3085 14.8063 78.8385 16.7205 78.8385 16.7205L76.805 22.9872C76.805 22.9872 74.2783 21.6047 70.9859 21.6047C66.769 21.6047 64.0782 24.0337 64.0782 28.3074L64.0829 31.3718C64.0829 35.4783 66.6791 38.2195 70.9946 38.2195C73.994 38.2195 76.7585 36.824 76.7585 36.824L78.7868 42.9598C78.7868 42.9598 76.4734 44.8861 70.2919 44.8861C55.92 44.8861 55.3252 34.5582 55.3252 29.8356H55.325ZM128.012 14.7954C136.188 14.7954 139.988 20.9061 139.988 29.5803C139.988 40.5076 135.135 44.881 128.007 44.881C123.929 44.881 120.914 43.1755 119.285 39.9923V44.3095L111.004 44.3062V0.88026L119.796 0.118345V19.4187C121.065 16.0421 125.236 14.7954 128.012 14.7954H128.012ZM125.547 21.6285C122.113 21.6285 119.796 24.0084 119.796 28.0565L119.788 32.1911C119.783 34.9196 121.393 38.1116 125.547 38.1116C131.39 38.1116 131.234 31.8428 131.234 29.7549C131.234 22.7317 128.121 21.6285 125.547 21.6285ZM94.0939 14.8193C84.8205 14.8193 79.9247 19.8431 79.9247 28.7708V30.4294C79.9247 42.0167 86.7999 45 94.9964 45C102.963 45 106.57 42.7859 106.57 42.7859L104.924 36.8896C104.924 36.8896 100.682 38.6829 96.0506 38.6829C91.2489 38.6829 89.1838 37.4669 88.6545 32.8819H107.273V28.1516C107.273 18.4673 101.778 14.8191 94.0936 14.8191L94.0939 14.8193ZM94.3173 20.7236C97.5274 20.7236 99.6074 22.6794 99.4932 27.2153H88.6707C88.8584 22.4413 91.1015 20.7238 94.3173 20.7238V20.7236ZM157.519 14.7796C147.996 14.7796 142.983 20.1118 142.983 29.6675C142.983 42.7784 151.625 44.8889 157.535 44.8889C166.188 44.8889 171.944 40.2604 171.944 29.7866C171.944 18.8851 165.472 14.7796 157.519 14.7796V14.7796ZM157.4 21.6522C161.587 21.6522 163.246 24.7661 163.246 28.3106V31.3581C163.246 35.6519 160.925 38.1355 157.384 38.1355C154.072 38.1355 151.745 35.8124 151.745 31.3581V28.3106C151.745 23.5601 154.514 21.6522 157.4 21.6522V21.6522ZM189.46 14.7796C179.937 14.7796 174.923 20.1118 174.923 29.6675C174.923 42.7784 183.565 44.8889 189.476 44.8889C198.128 44.8889 203.885 40.2604 203.885 29.7866C203.885 18.8851 197.412 14.7796 189.46 14.7796V14.7796ZM189.34 21.6522C193.527 21.6522 195.187 24.7661 195.187 28.3106V31.3581C195.187 35.6519 192.865 38.1355 189.324 38.1355C186.013 38.1355 183.685 35.8124 183.685 31.3581V28.3106C183.685 23.5601 186.455 21.6522 189.34 21.6522V21.6522ZM207.207 44.3064V0.88026L216.025 0.118577V29.2255L224.773 15.356H234.086L224.96 29.7208L234.437 44.3064H225.098L216.025 30.1437V44.3064H207.207Z" fill="#59606F"/>
</svg>
