<svg width="690" height="673" viewBox="0 0 690 673" fill="none" xmlns="http://www.w3.org/2000/svg">
<path fill-rule="evenodd" clip-rule="evenodd" d="M345 0C154.387 0 0 154.393 0 345.011C0 497.679 98.7562 626.627 235.894 672.341C253.144 675.36 259.612 665.009 259.612 655.953C259.612 647.759 259.181 620.589 259.181 591.695C172.5 607.651 150.075 570.563 143.175 551.156C139.294 541.237 122.475 510.617 107.812 502.423C95.7375 495.954 78.4875 479.997 107.381 479.566C134.55 479.135 153.956 504.579 160.425 514.929C191.475 567.112 241.069 552.449 260.906 543.393C263.925 520.967 272.981 505.873 282.9 497.248C206.137 488.622 125.925 458.865 125.925 326.898C125.925 289.378 139.294 258.327 161.288 234.176C157.838 225.551 145.762 190.188 164.737 142.748C164.737 142.748 193.631 133.692 259.612 178.112C287.212 170.349 316.538 166.468 345.863 166.468C375.188 166.468 404.513 170.349 432.113 178.112C498.094 133.261 526.988 142.748 526.988 142.748C545.963 190.188 533.888 225.551 530.438 234.176C552.431 258.327 565.8 288.947 565.8 326.898C565.8 459.296 485.156 488.622 408.394 497.248C420.9 508.029 431.681 528.73 431.681 561.075C431.681 607.22 431.25 644.309 431.25 655.953C431.25 665.009 437.719 675.791 454.969 672.341C591.244 626.627 690 497.248 690 345.011C690 154.393 535.613 0 345 0Z" fill="#F1F1F1"/>
</svg>
