<svg width="77" height="27" viewBox="0 0 77 27" fill="none" xmlns="http://www.w3.org/2000/svg">
<path d="M4.5544 19.1028C4.87842 19.9669 5.32699 20.7057 5.90023 21.3193C6.47347 21.9329 7.15261 22.4025 7.93762 22.7281C8.72269 23.0537 9.57628 23.2164 10.4984 23.2164C11.3957 23.2164 12.2367 23.0473 13.0218 22.7092C13.8069 22.371 14.4922 21.8952 15.0779 21.2817C15.6635 20.6681 16.1184 19.9356 16.4424 19.084C16.7664 18.2325 16.9284 17.2809 16.9284 16.2289V0H20.8536V26.2968H16.9658V23.855C16.0935 24.7816 15.0654 25.4954 13.8816 25.9964C12.6977 26.4972 11.4205 26.7476 10.0498 26.7476C8.65411 26.7476 7.35196 26.5034 6.14319 26.0151C4.93452 25.5267 3.88771 24.8318 3.00302 23.9301C2.11835 23.0285 1.42045 21.9454 0.909577 20.6806C0.398625 19.4159 0.143188 18.0072 0.143188 16.4543V0H4.06845V16.2289C4.06845 17.2809 4.23041 18.2387 4.5544 19.1028Z" fill="#59606F"/>
<path d="M27.6197 0V9.57953C28.4919 8.70299 29.5014 8.00807 30.6478 7.49461C31.7942 6.98115 33.0403 6.72445 34.3859 6.72445C35.7818 6.72445 37.0901 6.98737 38.3113 7.51331C39.5325 8.03925 40.5915 8.75304 41.489 9.6547C42.3861 10.5563 43.0964 11.6207 43.6197 12.8478C44.143 14.0751 44.4048 15.3774 44.4048 16.7549C44.4048 18.1322 44.143 19.4283 43.6197 20.6429C43.0964 21.8576 42.3861 22.9158 41.489 23.8173C40.5915 24.719 39.5325 25.4328 38.3113 25.9587C37.0901 26.4846 35.7818 26.7475 34.3859 26.7475C33.0403 26.7475 31.788 26.4908 30.6291 25.9774C29.4702 25.464 28.4546 24.769 27.5823 23.8925V26.2968H23.844V0H27.6197ZM28.0496 19.3469C28.386 20.1485 28.8534 20.8497 29.4515 21.4508C30.0496 22.0519 30.7475 22.5277 31.5449 22.8783C32.3425 23.229 33.2024 23.4043 34.1245 23.4043C35.0216 23.4043 35.8689 23.229 36.6665 22.8783C37.464 22.5277 38.1553 22.0519 38.7412 21.4508C39.3271 20.8498 39.7943 20.1485 40.1433 19.3469C40.4919 18.5455 40.6665 17.6815 40.6665 16.7549C40.6665 15.8282 40.4919 14.9579 40.1433 14.1439C39.7943 13.33 39.3271 12.6225 38.7412 12.0214C38.1557 11.4204 37.464 10.9508 36.6665 10.6127C35.8689 10.2747 35.0216 10.1055 34.1245 10.1055C33.2273 10.1055 32.3799 10.2746 31.5824 10.6127C30.7849 10.9509 30.0871 11.4204 29.4889 12.0214C28.8908 12.6225 28.4173 13.33 28.0683 14.1439C27.7195 14.9579 27.545 15.8282 27.545 16.7549C27.5449 17.6815 27.7132 18.5455 28.0496 19.3469Z" fill="#59606F"/>
<path d="M46.5352 12.8855C47.0336 11.6834 47.7191 10.6253 48.5913 9.71113C49.4635 8.79702 50.498 8.07701 51.6942 7.55107C52.8905 7.02513 54.1864 6.76221 55.5822 6.76221C56.9528 6.76221 58.2238 7.01268 59.3952 7.5135C60.5666 8.01441 61.5758 8.7094 62.4234 9.59852C63.2708 10.4875 63.9313 11.5395 64.4045 12.7541C64.8783 13.9688 65.1148 15.2899 65.1148 16.7175V17.9572H49.6008C49.7253 18.7336 49.9747 19.4536 50.3485 20.1172C50.7224 20.7809 51.1896 21.3569 51.7503 21.8453C52.3112 22.3337 52.9465 22.7157 53.6569 22.9911C54.3673 23.2666 55.1209 23.4044 55.9187 23.4044C58.1865 23.4044 60.0184 22.4651 61.4139 20.5868L64.143 22.6154C63.1961 23.8927 62.0247 24.8945 60.6292 25.6207C59.2334 26.347 57.6632 26.7102 55.9187 26.7102C54.498 26.7102 53.171 26.4596 51.9374 25.9588C50.7037 25.458 49.6319 24.7567 48.7224 23.855C47.8128 22.9534 47.0962 21.8952 46.5729 20.6806C46.0496 19.466 45.7878 18.1448 45.7878 16.7173C45.7875 15.365 46.0369 14.0877 46.5352 12.8855ZM51.7876 11.4016C50.7286 12.2907 50.0245 13.474 49.6755 14.9517H61.3019C60.9778 13.474 60.2861 12.2907 59.2271 11.4016C58.1678 10.5125 56.9279 10.068 55.5075 10.068C54.0868 10.068 52.8469 10.5125 51.7876 11.4016Z" fill="#59606F"/>
<path d="M72.1801 11.8336C71.3826 12.7101 70.9838 13.8997 70.9838 15.4024V26.2969H67.2079V7.13774H70.9462V9.50449C71.4199 8.72811 72.0366 8.11448 72.7968 7.66368C73.5569 7.21282 74.4603 6.98737 75.5072 6.98737H76.8155V10.5187H75.2454C73.9993 10.5188 72.9776 10.957 72.1801 11.8336Z" fill="#59606F"/>
</svg>
