<svg width="235" height="82" viewBox="0 0 235 82" fill="none" xmlns="http://www.w3.org/2000/svg">
<path d="M13.8998 58.016C14.8887 60.6402 16.2577 62.884 18.0072 64.7474C19.7567 66.611 21.8294 68.0371 24.2252 69.026C26.6212 70.0148 29.2263 70.5091 32.0406 70.5091C34.779 70.5091 37.3459 69.9956 39.7419 68.9687C42.138 67.9417 44.2295 66.4966 46.0169 64.6333C47.8043 62.7697 49.1925 60.5451 50.1814 57.9589C51.1702 55.3728 51.6645 52.4827 51.6645 49.2879V0H63.6442V79.8645H51.7786V72.4485C49.1165 75.2626 45.9788 77.4304 42.3659 78.9519C38.7528 80.473 34.8549 81.2336 30.6715 81.2336C26.4119 81.2336 22.4378 80.4919 18.7487 79.0087C15.0599 77.5256 11.8651 75.415 9.16507 72.6767C6.46509 69.9383 4.33514 66.6491 2.77599 62.8078C1.21659 58.9667 0.437012 54.6884 0.437012 49.9723V0H12.4167V49.2879C12.4167 52.4827 12.911 55.3917 13.8998 58.016Z" fill="#59606F"/>
<path d="M84.2937 0V29.0934C86.9558 26.4313 90.0365 24.3208 93.5353 22.7614C97.034 21.202 100.837 20.4224 104.944 20.4224C109.204 20.4224 113.197 21.2209 116.924 22.8182C120.651 24.4155 123.883 26.5833 126.622 29.3217C129.36 32.06 131.528 35.2924 133.125 39.0194C134.722 42.7466 135.521 46.7018 135.521 50.8852C135.521 55.0683 134.722 59.0046 133.125 62.6934C131.528 66.3825 129.36 69.5962 126.622 72.3341C123.883 75.0725 120.651 77.2403 116.924 78.8375C113.197 80.4348 109.204 81.2333 104.944 81.2333C100.837 81.2333 97.0151 80.4537 93.4782 78.8943C89.9414 77.3352 86.8417 75.2244 84.1796 72.5623V79.8643H72.7705V0H84.2937ZM85.6057 58.7574C86.6324 61.1916 88.0588 63.3213 89.8843 65.1468C91.7098 66.9723 93.8395 68.4175 96.2734 69.4824C98.7075 70.5472 101.332 71.0797 104.146 71.0797C106.884 71.0797 109.47 70.5472 111.904 69.4824C114.338 68.4175 116.448 66.9725 118.236 65.1468C120.024 63.3215 121.45 61.1916 122.515 58.7574C123.579 56.3235 124.112 53.6995 124.112 50.8852C124.112 48.0708 123.579 45.4277 122.515 42.9556C121.45 40.4836 120.024 38.335 118.236 36.5095C116.449 34.6843 114.338 33.2579 111.904 32.2312C109.47 31.2045 106.884 30.6907 104.146 30.6907C101.408 30.6907 98.8216 31.2042 96.3877 32.2312C93.9538 33.2582 91.8242 34.6843 89.9984 36.5095C88.1732 38.335 86.7279 40.4836 85.663 42.9556C84.5982 45.4277 84.0658 48.0708 84.0658 50.8852C84.0655 53.6995 84.579 56.3235 85.6057 58.7574Z" fill="#59606F"/>
<path d="M142.023 39.1338C143.544 35.4828 145.636 32.2694 148.298 29.4931C150.96 26.7169 154.117 24.5302 157.768 22.9329C161.419 21.3356 165.374 20.5371 169.634 20.5371C173.817 20.5371 177.696 21.2978 181.271 22.8188C184.846 24.3401 187.926 26.4508 190.513 29.1511C193.099 31.851 195.115 35.0458 196.559 38.7347C198.005 42.4238 198.727 46.436 198.727 50.7716V54.5367H151.379C151.759 56.8946 152.52 59.0814 153.661 61.0967C154.802 63.1123 156.228 64.8618 157.939 66.345C159.651 67.8284 161.59 68.9884 163.758 69.8248C165.926 70.6614 168.226 71.08 170.661 71.08C177.582 71.08 183.173 68.2275 187.432 62.5228L195.761 68.6837C192.871 72.5629 189.296 75.6055 185.037 77.8111C180.777 80.0168 175.985 81.1198 170.661 81.1198C166.325 81.1198 162.275 80.3589 158.51 78.8379C154.745 77.3168 151.474 75.1869 148.698 72.4485C145.922 69.7102 143.735 66.4967 142.138 62.8079C140.541 59.119 139.742 55.1065 139.742 50.7711C139.741 46.664 140.502 42.7848 142.023 39.1338ZM158.053 34.627C154.821 37.3273 152.672 40.9212 151.607 45.4088H187.09C186.101 40.9212 183.99 37.3273 180.758 34.627C177.525 31.927 173.741 30.5769 169.406 30.5769C165.07 30.5769 161.286 31.927 158.053 34.627Z" fill="#59606F"/>
<path d="M220.29 35.939C217.856 38.6011 216.639 42.2139 216.639 46.7778V79.8648H205.115V21.6776H216.524V28.8655C217.97 26.5076 219.852 24.644 222.172 23.2749C224.492 21.9056 227.249 21.2209 230.444 21.2209H234.437V31.9457H229.645C225.842 31.9459 222.724 33.2768 220.29 35.939Z" fill="#59606F"/>
</svg>
