<svg width="115" height="28" viewBox="0 0 115 28" fill="none" xmlns="http://www.w3.org/2000/svg">
<path d="M66.5097 14.6404C66.5097 11.9235 65.3513 9.52295 61.433 9.52295C59.4227 9.52295 57.8255 10.0981 56.9598 10.6016L57.5945 12.7813C58.3916 12.2793 59.6635 11.8658 60.8639 11.8658C62.8478 11.863 63.1727 12.9894 63.1727 13.7137V13.8881C58.8423 13.881 56.1053 15.3829 56.1053 18.4415C56.1053 20.3105 57.4951 22.0627 59.9243 22.0627C61.4061 22.0627 62.6589 21.4622 63.4066 20.5144H63.4795C63.4795 20.5144 63.9728 22.5858 66.7005 21.7941C66.5615 20.9264 66.5097 20.0123 66.5097 18.9014V14.6404ZM63.2794 17.5092C63.2794 17.7286 63.2613 17.9564 63.1967 18.1519C62.9471 18.9886 62.0873 19.6889 61.0166 19.6889C60.1132 19.6889 59.4041 19.1756 59.4041 18.0998C59.4041 16.4545 61.2143 16.0017 63.2794 16.0129" fill="#59606F"/>
<path d="M0.213867 5.82629C0.213867 5.82629 3.04231 17.4421 3.49203 19.3237C4.02157 21.5231 4.97002 22.3359 7.70741 21.7945L9.47537 14.5916C9.92226 12.807 10.2262 11.5273 10.5149 9.70901H10.5639C10.7642 11.5456 11.0528 12.807 11.4185 14.5972C11.4185 14.5972 12.1399 17.8696 12.514 19.5838C12.8782 21.2981 13.9037 22.3795 16.5893 21.7945L20.7977 5.82629H17.4004L15.9561 12.7339C15.5736 14.735 15.2262 16.3115 14.9558 18.1452H14.9067C14.663 16.3312 14.3534 14.8194 13.9555 12.8591L12.4594 5.82629H8.91501L7.31792 12.6791C6.86262 14.7716 6.43678 16.4492 6.1692 18.2254H6.12295C5.847 16.5589 5.47293 14.4369 5.07645 12.4231C5.07645 12.4231 4.12802 7.51666 3.79322 5.82629" fill="#59606F"/>
<path d="M30.2652 14.6404C30.2652 11.9235 29.1038 9.52295 25.1854 9.52295C23.1808 9.52295 21.5809 10.0981 20.7151 10.6016L21.3497 12.7813C22.1441 12.2793 23.4147 11.8658 24.6195 11.8658C26.6032 11.863 26.9282 12.9894 26.9282 13.7137V13.8881C22.598 13.881 19.8578 15.3829 19.8578 18.4415C19.8578 20.3105 21.2531 22.0627 23.6711 22.0627C25.1672 22.0627 26.4085 21.4622 27.1566 20.5144H27.2322C27.2322 20.5144 27.7281 22.5858 30.4529 21.7941C30.3129 20.9264 30.2652 20.0123 30.2652 18.9014V14.6404ZM27.0319 17.5092C27.0319 17.7286 27.0137 17.9564 26.9521 18.1519C26.6998 18.9886 25.8397 19.6889 24.7666 19.6889C23.8686 19.6889 23.1569 19.1756 23.1569 18.0998C23.1569 16.4545 24.9669 16.0017 27.0319 16.0129" fill="#59606F"/>
<path d="M32.0281 5.82629V21.7888H35.2614V18.404V5.82629H32.0281Z" fill="#59606F"/>
<path d="M76.4333 5.82629V17.6038C76.4333 19.2295 76.7372 20.3629 77.3915 21.0576C77.966 21.6665 78.9061 22.0631 80.0253 22.0631C80.9864 22.0631 81.9264 21.8775 82.3703 21.7158L82.3311 19.1802C81.9993 19.2576 81.6196 19.3237 81.0984 19.3237C79.9944 19.3237 79.6304 18.622 79.6304 17.1623V12.6537H82.4461V9.60354H79.6304V5.82629" fill="#59606F"/>
<path d="M68.076 9.80003V21.7941H71.4189V15.6515C71.4189 15.321 71.4399 15.0355 71.4918 14.7712C71.7409 13.476 72.7201 12.6561 74.1309 12.6561C74.5249 12.6561 74.792 12.6998 75.0891 12.7461V9.60173C74.84 9.55673 74.6702 9.53281 74.3634 9.53281C73.1126 9.53281 71.6949 10.3302 71.0964 12.0669H71.0137V9.80003" fill="#59606F"/>
<path d="M37.139 9.80003V21.7941H40.3961V14.7543C40.3961 14.4238 40.4325 14.0863 40.5489 13.7811C40.8137 13.0682 41.4707 12.2427 42.5256 12.2427C43.8368 12.2427 44.456 13.3537 44.456 14.9568V21.7941H47.7048V14.6699C47.7048 14.3591 47.7483 13.978 47.8392 13.7024C48.0999 12.8938 48.8115 12.2427 49.795 12.2427C51.1202 12.2427 51.7618 13.3298 51.7618 15.2198V21.7941H55.0077V14.7219C55.0077 11.0066 53.1251 9.53281 50.9871 9.53281C50.047 9.53281 49.2993 9.76486 48.6266 10.1811C48.0578 10.5313 47.5591 11.0249 47.1122 11.6703H47.0632C46.549 10.3794 45.3414 9.53281 43.764 9.53281C41.741 9.53281 40.822 10.558 40.2813 11.4242H40.2322V9.80003" fill="#59606F"/>
<path d="M99.9395 9.26171C100.578 9.26171 101.116 8.92699 101.186 8.49667L101.82 1.29658C101.82 0.583604 100.983 0 99.9395 0C98.8903 0 98.0593 0.583604 98.0593 1.29658L98.6979 8.49667C98.7655 8.92699 99.3004 9.26171 99.9395 9.26171Z" fill="#59606F"/>
<path d="M96.0539 11.5147C96.3705 10.9522 96.3524 10.3278 96.0108 10.0493L90.0989 5.89944C89.4837 5.53942 88.5632 5.96836 88.0367 6.87679C87.5111 7.78384 87.6178 8.80196 88.2202 9.15496L94.7649 12.2009C95.1838 12.3585 95.7319 12.0659 96.0539 11.509" fill="#59606F"/>
<path d="M103.823 11.5088C104.158 12.0656 104.706 12.3582 105.114 12.2091L111.659 9.15467C112.267 8.79465 112.358 7.78635 111.844 6.8793C111.318 5.97087 110.393 5.54478 109.779 5.89773L103.866 10.0434C103.538 10.3261 103.514 10.9533 103.831 11.5144" fill="#59606F"/>
<path d="M99.9395 18.2555C100.578 18.2555 101.116 18.5902 101.186 19.0205L101.82 26.2206C101.82 26.9336 100.983 27.5116 99.9395 27.5116C98.8903 27.5116 98.0593 26.9336 98.0593 26.2206L98.6979 19.0205C98.7655 18.5902 99.3004 18.2555 99.9395 18.2555Z" fill="#59606F"/>
<path d="M103.823 16.0088C104.158 15.4505 104.706 15.1524 105.114 15.3141L111.659 18.3629C112.267 18.7159 112.358 19.7326 111.844 20.6411C111.318 21.5425 110.393 21.9714 109.779 21.6184L103.866 17.4671C103.538 17.1873 103.514 16.5629 103.831 16.0088" fill="#59606F"/>
<path d="M96.0539 16.0026C96.3705 16.5638 96.3524 17.1867 96.0108 17.468L90.0989 21.6123C89.4837 21.9723 88.5632 21.542 88.0367 20.6405C87.5111 19.7335 87.6178 18.7153 88.2202 18.3624L94.7649 15.3136C95.1838 15.1533 95.7319 15.4486 96.0539 16.0026Z" fill="#59606F"/>
<path d="M113.575 20.9866H113.656C113.766 20.9866 113.811 21.0218 113.824 21.1103C113.848 21.2088 113.86 21.2749 113.884 21.303H114.094C114.076 21.2819 114.052 21.2285 114.039 21.1047C114.015 20.9978 113.961 20.9374 113.884 20.9163V20.8966C113.991 20.8727 114.052 20.801 114.052 20.7124C114.052 20.6322 114.015 20.5746 113.979 20.538C113.909 20.5043 113.842 20.4775 113.693 20.4775C113.562 20.4775 113.465 20.4888 113.388 20.5071V21.303H113.575V20.9866ZM113.58 20.6238L113.675 20.6112C113.787 20.6112 113.848 20.6632 113.848 20.7363C113.848 20.8179 113.766 20.8558 113.663 20.8558H113.58V20.6238ZM113.699 20.0838C113.239 20.0838 112.875 20.4438 112.875 20.8854C112.875 21.3382 113.239 21.6982 113.699 21.6982C114.164 21.6982 114.517 21.3382 114.517 20.8854C114.517 20.4438 114.164 20.0838 113.699 20.0838ZM113.699 20.2455C114.052 20.2455 114.314 20.5324 114.314 20.8854C114.314 21.2412 114.052 21.5365 113.699 21.5308C113.346 21.5308 113.078 21.2412 113.078 20.8854C113.078 20.5324 113.346 20.2455 113.693 20.2455" fill="#59606F"/>
</svg>
