<svg width="235" height="57" viewBox="0 0 235 57" fill="none" xmlns="http://www.w3.org/2000/svg">
<g clip-path="url(#clip0_152_94)">
<path d="M135.911 29.8036C135.911 24.2728 133.544 19.386 125.537 19.386C121.429 19.386 118.165 20.5569 116.396 21.5818L117.693 26.0191C119.322 24.9971 121.921 24.1554 124.374 24.1554C128.428 24.1497 129.092 26.4428 129.092 27.9171V28.2721C120.243 28.2577 114.65 31.3152 114.65 37.5417C114.65 41.3463 117.49 44.9133 122.454 44.9133C125.482 44.9133 128.042 43.6909 129.57 41.7614H129.719C129.719 41.7614 130.727 45.9783 136.301 44.3665C136.017 42.6002 135.911 40.7394 135.911 38.4778V29.8036V29.8036ZM129.31 35.6437C129.31 36.0903 129.273 36.554 129.141 36.952C128.631 38.6553 126.874 40.081 124.686 40.081C122.84 40.081 121.391 39.0361 121.391 36.846C121.391 33.4966 125.09 32.5748 129.31 32.5977" fill="#59606F"/>
<path d="M0.437012 11.8607C0.437012 11.8607 6.21688 35.5071 7.13587 39.3375C8.21797 43.8149 10.1561 45.4696 15.7499 44.3674L19.3627 29.7043C20.2759 26.0715 20.8971 23.4664 21.4869 19.7648H21.587C21.9964 23.5036 22.5862 26.0715 23.3334 29.7158C23.3334 29.7158 24.8076 36.3774 25.5721 39.8671C26.3163 43.3568 28.4119 45.5583 33.8998 44.3674L42.4996 11.8607H35.5573L32.6059 25.9226C31.8243 29.9963 31.1143 33.2055 30.5618 36.9385H30.4616C29.9635 33.2456 29.3308 30.1681 28.5178 26.1774L25.4604 11.8607H18.2176L14.954 25.811C14.0236 30.0708 13.1534 33.486 12.6066 37.1017H12.5121C11.9482 33.7093 11.1838 29.3894 10.3736 25.2899C10.3736 25.2899 8.4355 15.3018 7.75135 11.8607" fill="#59606F"/>
<path d="M61.8463 29.8036C61.8463 24.2728 59.4729 19.386 51.4658 19.386C47.3693 19.386 44.1 20.5569 42.3309 21.5818L43.6276 26.0191C45.2509 24.9971 47.8474 24.1554 50.3094 24.1554C54.363 24.1497 55.0271 26.4428 55.0271 27.9171V28.2721C46.1784 28.2577 40.5789 31.3152 40.5789 37.5417C40.5789 41.3463 43.4302 44.9133 48.3713 44.9133C51.4286 44.9133 53.9651 43.6909 55.4938 41.7614H55.6483C55.6483 41.7614 56.6617 45.9783 62.2298 44.3665C61.9436 42.6002 61.8463 40.7394 61.8463 38.4778V29.8036V29.8036ZM55.2391 35.6437C55.2391 36.0903 55.2019 36.554 55.0759 36.952C54.5604 38.6553 52.8028 40.081 50.61 40.081C48.7749 40.081 47.3206 39.0361 47.3206 36.846C47.3206 33.4966 51.0192 32.5748 55.2391 32.5977" fill="#59606F"/>
<path d="M65.4487 11.8607V44.3559H72.0559V37.4653V11.8607H65.4487Z" fill="#59606F"/>
<path d="M156.19 11.8607V35.8364C156.19 39.1457 156.811 41.4531 158.148 42.8673C159.322 44.1069 161.243 44.9142 163.53 44.9142C165.494 44.9142 167.415 44.5363 168.322 44.2071L168.242 39.0455C167.564 39.203 166.788 39.3375 165.723 39.3375C163.467 39.3375 162.723 37.909 162.723 34.9375V25.7594H168.477V19.5501H162.723V11.8607" fill="#59606F"/>
<path d="M139.112 19.9501V44.3666H145.943V31.862C145.943 31.1893 145.986 30.6081 146.092 30.0699C146.601 27.4333 148.602 25.7643 151.485 25.7643C152.29 25.7643 152.836 25.8531 153.443 25.9475V19.5464C152.934 19.4548 152.587 19.4061 151.96 19.4061C149.404 19.4061 146.507 21.0293 145.284 24.5648H145.115V19.9501" fill="#59606F"/>
<path d="M75.8928 19.9501V44.3666H82.5486V30.0356C82.5486 29.3628 82.623 28.6758 82.8607 28.0545C83.4018 26.6031 84.7444 24.9227 86.9001 24.9227C89.5795 24.9227 90.8449 27.1843 90.8449 30.4478V44.3666H97.4838V29.8638C97.4838 29.2311 97.5725 28.4553 97.7584 27.8942C98.291 26.2481 99.7453 24.9227 101.755 24.9227C104.463 24.9227 105.774 27.1356 105.774 30.9831V44.3666H112.407V29.9697C112.407 22.4063 108.56 19.4061 104.191 19.4061C102.27 19.4061 100.742 19.8785 99.3673 20.7259C98.205 21.4387 97.186 22.4435 96.2727 23.7575H96.1726C95.1219 21.1295 92.6542 19.4061 89.4307 19.4061C85.2969 19.4061 83.4189 21.4931 82.3139 23.2565H82.2137V19.9501" fill="#59606F"/>
<path d="M204.224 18.8542C205.529 18.8542 206.628 18.1728 206.772 17.2968L208.066 2.63947C208.066 1.18805 206.357 0 204.224 0C202.08 0 200.382 1.18805 200.382 2.63947L201.687 17.2968C201.825 18.1728 202.918 18.8542 204.224 18.8542Z" fill="#59606F"/>
<path d="M196.284 23.4406C196.931 22.2955 196.894 21.0244 196.196 20.4576L184.115 12.0096C182.858 11.2767 180.977 12.1499 179.901 13.9992C178.827 15.8457 179.045 17.9183 180.276 18.6369L193.65 24.8376C194.506 25.1583 195.626 24.5628 196.284 23.4291" fill="#59606F"/>
<path d="M212.161 23.4286C212.845 24.5622 213.965 25.1577 214.798 24.8542L228.173 18.6363C229.415 17.9034 229.601 15.8508 228.551 14.0043C227.477 12.155 225.585 11.2876 224.331 12.0061L212.247 20.4456C211.577 21.021 211.529 22.2978 212.176 23.44" fill="#59606F"/>
<path d="M204.224 37.163C205.529 37.163 206.628 37.8443 206.772 38.7203L208.066 53.3777C208.066 54.8291 206.357 56.0057 204.224 56.0057C202.08 56.0057 200.382 54.8291 200.382 53.3777L201.687 38.7203C201.825 37.8443 202.918 37.163 204.224 37.163Z" fill="#59606F"/>
<path d="M212.161 32.5894C212.845 31.4529 213.965 30.846 214.798 31.1752L228.173 37.3817C229.415 38.1002 229.601 40.17 228.551 42.0193C227.477 43.8544 225.585 44.7275 224.331 44.0089L212.247 35.5581C211.577 34.9884 211.529 33.7173 212.176 32.5894" fill="#59606F"/>
<path d="M196.284 32.5768C196.931 33.7191 196.894 34.9873 196.196 35.5598L184.115 43.9964C182.858 44.7293 180.977 43.8533 179.901 42.0182C178.827 40.1717 179.045 38.0991 180.276 37.3805L193.65 31.1741C194.506 30.8477 195.626 31.4489 196.284 32.5768Z" fill="#59606F"/>
<path d="M232.087 42.7227H232.253C232.479 42.7227 232.57 42.7943 232.596 42.9746C232.645 43.175 232.671 43.3096 232.719 43.3668H233.149C233.111 43.3239 233.063 43.2151 233.037 42.9632C232.988 42.7456 232.877 42.6225 232.719 42.5796V42.5395C232.937 42.4908 233.063 42.3448 233.063 42.1645C233.063 42.0013 232.988 41.8839 232.914 41.8095C232.771 41.7408 232.633 41.6864 232.33 41.6864C232.061 41.6864 231.863 41.7093 231.706 41.7465V43.3668H232.087V42.7227V42.7227ZM232.098 41.9841L232.293 41.9584C232.522 41.9584 232.645 42.0643 232.645 42.2132C232.645 42.3792 232.479 42.4565 232.267 42.4565H232.098V41.9841V41.9841ZM232.341 40.8848C231.402 40.8848 230.658 41.6177 230.658 42.5166C230.658 43.4384 231.402 44.1713 232.341 44.1713C233.292 44.1713 234.013 43.4384 234.013 42.5166C234.013 41.6177 233.292 40.8848 232.341 40.8848ZM232.341 41.214C233.063 41.214 233.598 41.798 233.598 42.5166C233.598 43.2409 233.063 43.8421 232.341 43.8306C231.62 43.8306 231.073 43.2409 231.073 42.5166C231.073 41.798 231.62 41.214 232.33 41.214" fill="#59606F"/>
</g>
<defs>
<clipPath id="clip0_152_94">
<rect width="233.576" height="56.0057" fill="white" transform="translate(0.437012)"/>
</clipPath>
</defs>
</svg>
